%TF.GenerationSoftware,KiCad,Pcbnew,7.0.1*%
%TF.CreationDate,2023-04-29T17:31:46+07:00*%
%TF.ProjectId,ErgoTravel,4572676f-5472-4617-9665-6c2e6b696361,rev?*%
%TF.SameCoordinates,Original*%
%TF.FileFunction,Legend,Top*%
%TF.FilePolarity,Positive*%
%FSLAX46Y46*%
G04 Gerber Fmt 4.6, Leading zero omitted, Abs format (unit mm)*
G04 Created by KiCad (PCBNEW 7.0.1) date 2023-04-29 17:31:46*
%MOMM*%
%LPD*%
G01*
G04 APERTURE LIST*
%ADD10C,0.200000*%
%ADD11C,0.250000*%
%ADD12C,0.300000*%
%ADD13C,0.150000*%
%ADD14C,0.120000*%
G04 APERTURE END LIST*
D10*
X141732000Y-48768000D02*
X141732000Y-50292000D01*
D11*
X93710095Y-50946809D02*
X94043428Y-50946809D01*
X94186285Y-51470619D02*
X93710095Y-51470619D01*
X93710095Y-51470619D02*
X93710095Y-50470619D01*
X93710095Y-50470619D02*
X94186285Y-50470619D01*
X94614857Y-51470619D02*
X94614857Y-50803952D01*
X94614857Y-50994428D02*
X94662476Y-50899190D01*
X94662476Y-50899190D02*
X94710095Y-50851571D01*
X94710095Y-50851571D02*
X94805333Y-50803952D01*
X94805333Y-50803952D02*
X94900571Y-50803952D01*
X95662476Y-50803952D02*
X95662476Y-51613476D01*
X95662476Y-51613476D02*
X95614857Y-51708714D01*
X95614857Y-51708714D02*
X95567238Y-51756333D01*
X95567238Y-51756333D02*
X95472000Y-51803952D01*
X95472000Y-51803952D02*
X95329143Y-51803952D01*
X95329143Y-51803952D02*
X95233905Y-51756333D01*
X95662476Y-51423000D02*
X95567238Y-51470619D01*
X95567238Y-51470619D02*
X95376762Y-51470619D01*
X95376762Y-51470619D02*
X95281524Y-51423000D01*
X95281524Y-51423000D02*
X95233905Y-51375380D01*
X95233905Y-51375380D02*
X95186286Y-51280142D01*
X95186286Y-51280142D02*
X95186286Y-50994428D01*
X95186286Y-50994428D02*
X95233905Y-50899190D01*
X95233905Y-50899190D02*
X95281524Y-50851571D01*
X95281524Y-50851571D02*
X95376762Y-50803952D01*
X95376762Y-50803952D02*
X95567238Y-50803952D01*
X95567238Y-50803952D02*
X95662476Y-50851571D01*
X96281524Y-51470619D02*
X96186286Y-51423000D01*
X96186286Y-51423000D02*
X96138667Y-51375380D01*
X96138667Y-51375380D02*
X96091048Y-51280142D01*
X96091048Y-51280142D02*
X96091048Y-50994428D01*
X96091048Y-50994428D02*
X96138667Y-50899190D01*
X96138667Y-50899190D02*
X96186286Y-50851571D01*
X96186286Y-50851571D02*
X96281524Y-50803952D01*
X96281524Y-50803952D02*
X96424381Y-50803952D01*
X96424381Y-50803952D02*
X96519619Y-50851571D01*
X96519619Y-50851571D02*
X96567238Y-50899190D01*
X96567238Y-50899190D02*
X96614857Y-50994428D01*
X96614857Y-50994428D02*
X96614857Y-51280142D01*
X96614857Y-51280142D02*
X96567238Y-51375380D01*
X96567238Y-51375380D02*
X96519619Y-51423000D01*
X96519619Y-51423000D02*
X96424381Y-51470619D01*
X96424381Y-51470619D02*
X96281524Y-51470619D01*
X96900572Y-50803952D02*
X97281524Y-50803952D01*
X97043429Y-50470619D02*
X97043429Y-51327761D01*
X97043429Y-51327761D02*
X97091048Y-51423000D01*
X97091048Y-51423000D02*
X97186286Y-51470619D01*
X97186286Y-51470619D02*
X97281524Y-51470619D01*
X97614858Y-51470619D02*
X97614858Y-50803952D01*
X97614858Y-50994428D02*
X97662477Y-50899190D01*
X97662477Y-50899190D02*
X97710096Y-50851571D01*
X97710096Y-50851571D02*
X97805334Y-50803952D01*
X97805334Y-50803952D02*
X97900572Y-50803952D01*
X98662477Y-51470619D02*
X98662477Y-50946809D01*
X98662477Y-50946809D02*
X98614858Y-50851571D01*
X98614858Y-50851571D02*
X98519620Y-50803952D01*
X98519620Y-50803952D02*
X98329144Y-50803952D01*
X98329144Y-50803952D02*
X98233906Y-50851571D01*
X98662477Y-51423000D02*
X98567239Y-51470619D01*
X98567239Y-51470619D02*
X98329144Y-51470619D01*
X98329144Y-51470619D02*
X98233906Y-51423000D01*
X98233906Y-51423000D02*
X98186287Y-51327761D01*
X98186287Y-51327761D02*
X98186287Y-51232523D01*
X98186287Y-51232523D02*
X98233906Y-51137285D01*
X98233906Y-51137285D02*
X98329144Y-51089666D01*
X98329144Y-51089666D02*
X98567239Y-51089666D01*
X98567239Y-51089666D02*
X98662477Y-51042047D01*
X99043430Y-50803952D02*
X99281525Y-51470619D01*
X99281525Y-51470619D02*
X99519620Y-50803952D01*
X100281525Y-51423000D02*
X100186287Y-51470619D01*
X100186287Y-51470619D02*
X99995811Y-51470619D01*
X99995811Y-51470619D02*
X99900573Y-51423000D01*
X99900573Y-51423000D02*
X99852954Y-51327761D01*
X99852954Y-51327761D02*
X99852954Y-50946809D01*
X99852954Y-50946809D02*
X99900573Y-50851571D01*
X99900573Y-50851571D02*
X99995811Y-50803952D01*
X99995811Y-50803952D02*
X100186287Y-50803952D01*
X100186287Y-50803952D02*
X100281525Y-50851571D01*
X100281525Y-50851571D02*
X100329144Y-50946809D01*
X100329144Y-50946809D02*
X100329144Y-51042047D01*
X100329144Y-51042047D02*
X99852954Y-51137285D01*
X100900573Y-51470619D02*
X100805335Y-51423000D01*
X100805335Y-51423000D02*
X100757716Y-51327761D01*
X100757716Y-51327761D02*
X100757716Y-50470619D01*
X101948193Y-50470619D02*
X102186288Y-51470619D01*
X102186288Y-51470619D02*
X102376764Y-50756333D01*
X102376764Y-50756333D02*
X102567240Y-51470619D01*
X102567240Y-51470619D02*
X102805336Y-50470619D01*
X103186288Y-51470619D02*
X103186288Y-50803952D01*
X103186288Y-50470619D02*
X103138669Y-50518238D01*
X103138669Y-50518238D02*
X103186288Y-50565857D01*
X103186288Y-50565857D02*
X103233907Y-50518238D01*
X103233907Y-50518238D02*
X103186288Y-50470619D01*
X103186288Y-50470619D02*
X103186288Y-50565857D01*
X103662478Y-51470619D02*
X103662478Y-50803952D01*
X103662478Y-50994428D02*
X103710097Y-50899190D01*
X103710097Y-50899190D02*
X103757716Y-50851571D01*
X103757716Y-50851571D02*
X103852954Y-50803952D01*
X103852954Y-50803952D02*
X103948192Y-50803952D01*
X104662478Y-51423000D02*
X104567240Y-51470619D01*
X104567240Y-51470619D02*
X104376764Y-51470619D01*
X104376764Y-51470619D02*
X104281526Y-51423000D01*
X104281526Y-51423000D02*
X104233907Y-51327761D01*
X104233907Y-51327761D02*
X104233907Y-50946809D01*
X104233907Y-50946809D02*
X104281526Y-50851571D01*
X104281526Y-50851571D02*
X104376764Y-50803952D01*
X104376764Y-50803952D02*
X104567240Y-50803952D01*
X104567240Y-50803952D02*
X104662478Y-50851571D01*
X104662478Y-50851571D02*
X104710097Y-50946809D01*
X104710097Y-50946809D02*
X104710097Y-51042047D01*
X104710097Y-51042047D02*
X104233907Y-51137285D01*
X105281526Y-51470619D02*
X105186288Y-51423000D01*
X105186288Y-51423000D02*
X105138669Y-51327761D01*
X105138669Y-51327761D02*
X105138669Y-50470619D01*
X106043431Y-51423000D02*
X105948193Y-51470619D01*
X105948193Y-51470619D02*
X105757717Y-51470619D01*
X105757717Y-51470619D02*
X105662479Y-51423000D01*
X105662479Y-51423000D02*
X105614860Y-51327761D01*
X105614860Y-51327761D02*
X105614860Y-50946809D01*
X105614860Y-50946809D02*
X105662479Y-50851571D01*
X105662479Y-50851571D02*
X105757717Y-50803952D01*
X105757717Y-50803952D02*
X105948193Y-50803952D01*
X105948193Y-50803952D02*
X106043431Y-50851571D01*
X106043431Y-50851571D02*
X106091050Y-50946809D01*
X106091050Y-50946809D02*
X106091050Y-51042047D01*
X106091050Y-51042047D02*
X105614860Y-51137285D01*
X106472003Y-51423000D02*
X106567241Y-51470619D01*
X106567241Y-51470619D02*
X106757717Y-51470619D01*
X106757717Y-51470619D02*
X106852955Y-51423000D01*
X106852955Y-51423000D02*
X106900574Y-51327761D01*
X106900574Y-51327761D02*
X106900574Y-51280142D01*
X106900574Y-51280142D02*
X106852955Y-51184904D01*
X106852955Y-51184904D02*
X106757717Y-51137285D01*
X106757717Y-51137285D02*
X106614860Y-51137285D01*
X106614860Y-51137285D02*
X106519622Y-51089666D01*
X106519622Y-51089666D02*
X106472003Y-50994428D01*
X106472003Y-50994428D02*
X106472003Y-50946809D01*
X106472003Y-50946809D02*
X106519622Y-50851571D01*
X106519622Y-50851571D02*
X106614860Y-50803952D01*
X106614860Y-50803952D02*
X106757717Y-50803952D01*
X106757717Y-50803952D02*
X106852955Y-50851571D01*
X107281527Y-51423000D02*
X107376765Y-51470619D01*
X107376765Y-51470619D02*
X107567241Y-51470619D01*
X107567241Y-51470619D02*
X107662479Y-51423000D01*
X107662479Y-51423000D02*
X107710098Y-51327761D01*
X107710098Y-51327761D02*
X107710098Y-51280142D01*
X107710098Y-51280142D02*
X107662479Y-51184904D01*
X107662479Y-51184904D02*
X107567241Y-51137285D01*
X107567241Y-51137285D02*
X107424384Y-51137285D01*
X107424384Y-51137285D02*
X107329146Y-51089666D01*
X107329146Y-51089666D02*
X107281527Y-50994428D01*
X107281527Y-50994428D02*
X107281527Y-50946809D01*
X107281527Y-50946809D02*
X107329146Y-50851571D01*
X107329146Y-50851571D02*
X107424384Y-50803952D01*
X107424384Y-50803952D02*
X107567241Y-50803952D01*
X107567241Y-50803952D02*
X107662479Y-50851571D01*
X94043428Y-52566809D02*
X94186285Y-52614428D01*
X94186285Y-52614428D02*
X94233904Y-52662047D01*
X94233904Y-52662047D02*
X94281523Y-52757285D01*
X94281523Y-52757285D02*
X94281523Y-52900142D01*
X94281523Y-52900142D02*
X94233904Y-52995380D01*
X94233904Y-52995380D02*
X94186285Y-53043000D01*
X94186285Y-53043000D02*
X94091047Y-53090619D01*
X94091047Y-53090619D02*
X93710095Y-53090619D01*
X93710095Y-53090619D02*
X93710095Y-52090619D01*
X93710095Y-52090619D02*
X94043428Y-52090619D01*
X94043428Y-52090619D02*
X94138666Y-52138238D01*
X94138666Y-52138238D02*
X94186285Y-52185857D01*
X94186285Y-52185857D02*
X94233904Y-52281095D01*
X94233904Y-52281095D02*
X94233904Y-52376333D01*
X94233904Y-52376333D02*
X94186285Y-52471571D01*
X94186285Y-52471571D02*
X94138666Y-52519190D01*
X94138666Y-52519190D02*
X94043428Y-52566809D01*
X94043428Y-52566809D02*
X93710095Y-52566809D01*
X94614857Y-52423952D02*
X94852952Y-53090619D01*
X95091047Y-52423952D02*
X94852952Y-53090619D01*
X94852952Y-53090619D02*
X94757714Y-53328714D01*
X94757714Y-53328714D02*
X94710095Y-53376333D01*
X94710095Y-53376333D02*
X94614857Y-53423952D01*
X96233905Y-53090619D02*
X96233905Y-52090619D01*
X96233905Y-52090619D02*
X96614857Y-52090619D01*
X96614857Y-52090619D02*
X96710095Y-52138238D01*
X96710095Y-52138238D02*
X96757714Y-52185857D01*
X96757714Y-52185857D02*
X96805333Y-52281095D01*
X96805333Y-52281095D02*
X96805333Y-52423952D01*
X96805333Y-52423952D02*
X96757714Y-52519190D01*
X96757714Y-52519190D02*
X96710095Y-52566809D01*
X96710095Y-52566809D02*
X96614857Y-52614428D01*
X96614857Y-52614428D02*
X96233905Y-52614428D01*
X97376762Y-53090619D02*
X97281524Y-53043000D01*
X97281524Y-53043000D02*
X97233905Y-52995380D01*
X97233905Y-52995380D02*
X97186286Y-52900142D01*
X97186286Y-52900142D02*
X97186286Y-52614428D01*
X97186286Y-52614428D02*
X97233905Y-52519190D01*
X97233905Y-52519190D02*
X97281524Y-52471571D01*
X97281524Y-52471571D02*
X97376762Y-52423952D01*
X97376762Y-52423952D02*
X97519619Y-52423952D01*
X97519619Y-52423952D02*
X97614857Y-52471571D01*
X97614857Y-52471571D02*
X97662476Y-52519190D01*
X97662476Y-52519190D02*
X97710095Y-52614428D01*
X97710095Y-52614428D02*
X97710095Y-52900142D01*
X97710095Y-52900142D02*
X97662476Y-52995380D01*
X97662476Y-52995380D02*
X97614857Y-53043000D01*
X97614857Y-53043000D02*
X97519619Y-53090619D01*
X97519619Y-53090619D02*
X97376762Y-53090619D01*
X98091048Y-53043000D02*
X98186286Y-53090619D01*
X98186286Y-53090619D02*
X98376762Y-53090619D01*
X98376762Y-53090619D02*
X98472000Y-53043000D01*
X98472000Y-53043000D02*
X98519619Y-52947761D01*
X98519619Y-52947761D02*
X98519619Y-52900142D01*
X98519619Y-52900142D02*
X98472000Y-52804904D01*
X98472000Y-52804904D02*
X98376762Y-52757285D01*
X98376762Y-52757285D02*
X98233905Y-52757285D01*
X98233905Y-52757285D02*
X98138667Y-52709666D01*
X98138667Y-52709666D02*
X98091048Y-52614428D01*
X98091048Y-52614428D02*
X98091048Y-52566809D01*
X98091048Y-52566809D02*
X98138667Y-52471571D01*
X98138667Y-52471571D02*
X98233905Y-52423952D01*
X98233905Y-52423952D02*
X98376762Y-52423952D01*
X98376762Y-52423952D02*
X98472000Y-52471571D01*
X98948191Y-53090619D02*
X98948191Y-52423952D01*
X98948191Y-52090619D02*
X98900572Y-52138238D01*
X98900572Y-52138238D02*
X98948191Y-52185857D01*
X98948191Y-52185857D02*
X98995810Y-52138238D01*
X98995810Y-52138238D02*
X98948191Y-52090619D01*
X98948191Y-52090619D02*
X98948191Y-52185857D01*
X99281524Y-52423952D02*
X99662476Y-52423952D01*
X99424381Y-52090619D02*
X99424381Y-52947761D01*
X99424381Y-52947761D02*
X99472000Y-53043000D01*
X99472000Y-53043000D02*
X99567238Y-53090619D01*
X99567238Y-53090619D02*
X99662476Y-53090619D01*
X99995810Y-53090619D02*
X99995810Y-52423952D01*
X99995810Y-52614428D02*
X100043429Y-52519190D01*
X100043429Y-52519190D02*
X100091048Y-52471571D01*
X100091048Y-52471571D02*
X100186286Y-52423952D01*
X100186286Y-52423952D02*
X100281524Y-52423952D01*
X100757715Y-53090619D02*
X100662477Y-53043000D01*
X100662477Y-53043000D02*
X100614858Y-52995380D01*
X100614858Y-52995380D02*
X100567239Y-52900142D01*
X100567239Y-52900142D02*
X100567239Y-52614428D01*
X100567239Y-52614428D02*
X100614858Y-52519190D01*
X100614858Y-52519190D02*
X100662477Y-52471571D01*
X100662477Y-52471571D02*
X100757715Y-52423952D01*
X100757715Y-52423952D02*
X100900572Y-52423952D01*
X100900572Y-52423952D02*
X100995810Y-52471571D01*
X100995810Y-52471571D02*
X101043429Y-52519190D01*
X101043429Y-52519190D02*
X101091048Y-52614428D01*
X101091048Y-52614428D02*
X101091048Y-52900142D01*
X101091048Y-52900142D02*
X101043429Y-52995380D01*
X101043429Y-52995380D02*
X100995810Y-53043000D01*
X100995810Y-53043000D02*
X100900572Y-53090619D01*
X100900572Y-53090619D02*
X100757715Y-53090619D01*
X101519620Y-52423952D02*
X101519620Y-53090619D01*
X101519620Y-52519190D02*
X101567239Y-52471571D01*
X101567239Y-52471571D02*
X101662477Y-52423952D01*
X101662477Y-52423952D02*
X101805334Y-52423952D01*
X101805334Y-52423952D02*
X101900572Y-52471571D01*
X101900572Y-52471571D02*
X101948191Y-52566809D01*
X101948191Y-52566809D02*
X101948191Y-53090619D01*
X103186287Y-52566809D02*
X103519620Y-52566809D01*
X103662477Y-53090619D02*
X103186287Y-53090619D01*
X103186287Y-53090619D02*
X103186287Y-52090619D01*
X103186287Y-52090619D02*
X103662477Y-52090619D01*
X104233906Y-53090619D02*
X104138668Y-53043000D01*
X104138668Y-53043000D02*
X104091049Y-52947761D01*
X104091049Y-52947761D02*
X104091049Y-52090619D01*
X104995811Y-53043000D02*
X104900573Y-53090619D01*
X104900573Y-53090619D02*
X104710097Y-53090619D01*
X104710097Y-53090619D02*
X104614859Y-53043000D01*
X104614859Y-53043000D02*
X104567240Y-52947761D01*
X104567240Y-52947761D02*
X104567240Y-52566809D01*
X104567240Y-52566809D02*
X104614859Y-52471571D01*
X104614859Y-52471571D02*
X104710097Y-52423952D01*
X104710097Y-52423952D02*
X104900573Y-52423952D01*
X104900573Y-52423952D02*
X104995811Y-52471571D01*
X104995811Y-52471571D02*
X105043430Y-52566809D01*
X105043430Y-52566809D02*
X105043430Y-52662047D01*
X105043430Y-52662047D02*
X104567240Y-52757285D01*
X105900573Y-53043000D02*
X105805335Y-53090619D01*
X105805335Y-53090619D02*
X105614859Y-53090619D01*
X105614859Y-53090619D02*
X105519621Y-53043000D01*
X105519621Y-53043000D02*
X105472002Y-52995380D01*
X105472002Y-52995380D02*
X105424383Y-52900142D01*
X105424383Y-52900142D02*
X105424383Y-52614428D01*
X105424383Y-52614428D02*
X105472002Y-52519190D01*
X105472002Y-52519190D02*
X105519621Y-52471571D01*
X105519621Y-52471571D02*
X105614859Y-52423952D01*
X105614859Y-52423952D02*
X105805335Y-52423952D01*
X105805335Y-52423952D02*
X105900573Y-52471571D01*
X106186288Y-52423952D02*
X106567240Y-52423952D01*
X106329145Y-52090619D02*
X106329145Y-52947761D01*
X106329145Y-52947761D02*
X106376764Y-53043000D01*
X106376764Y-53043000D02*
X106472002Y-53090619D01*
X106472002Y-53090619D02*
X106567240Y-53090619D01*
X106900574Y-53090619D02*
X106900574Y-52423952D01*
X106900574Y-52614428D02*
X106948193Y-52519190D01*
X106948193Y-52519190D02*
X106995812Y-52471571D01*
X106995812Y-52471571D02*
X107091050Y-52423952D01*
X107091050Y-52423952D02*
X107186288Y-52423952D01*
X107662479Y-53090619D02*
X107567241Y-53043000D01*
X107567241Y-53043000D02*
X107519622Y-52995380D01*
X107519622Y-52995380D02*
X107472003Y-52900142D01*
X107472003Y-52900142D02*
X107472003Y-52614428D01*
X107472003Y-52614428D02*
X107519622Y-52519190D01*
X107519622Y-52519190D02*
X107567241Y-52471571D01*
X107567241Y-52471571D02*
X107662479Y-52423952D01*
X107662479Y-52423952D02*
X107805336Y-52423952D01*
X107805336Y-52423952D02*
X107900574Y-52471571D01*
X107900574Y-52471571D02*
X107948193Y-52519190D01*
X107948193Y-52519190D02*
X107995812Y-52614428D01*
X107995812Y-52614428D02*
X107995812Y-52900142D01*
X107995812Y-52900142D02*
X107948193Y-52995380D01*
X107948193Y-52995380D02*
X107900574Y-53043000D01*
X107900574Y-53043000D02*
X107805336Y-53090619D01*
X107805336Y-53090619D02*
X107662479Y-53090619D01*
X108424384Y-52423952D02*
X108424384Y-53090619D01*
X108424384Y-52519190D02*
X108472003Y-52471571D01*
X108472003Y-52471571D02*
X108567241Y-52423952D01*
X108567241Y-52423952D02*
X108710098Y-52423952D01*
X108710098Y-52423952D02*
X108805336Y-52471571D01*
X108805336Y-52471571D02*
X108852955Y-52566809D01*
X108852955Y-52566809D02*
X108852955Y-53090619D01*
X109329146Y-53090619D02*
X109329146Y-52423952D01*
X109329146Y-52090619D02*
X109281527Y-52138238D01*
X109281527Y-52138238D02*
X109329146Y-52185857D01*
X109329146Y-52185857D02*
X109376765Y-52138238D01*
X109376765Y-52138238D02*
X109329146Y-52090619D01*
X109329146Y-52090619D02*
X109329146Y-52185857D01*
X110233907Y-53043000D02*
X110138669Y-53090619D01*
X110138669Y-53090619D02*
X109948193Y-53090619D01*
X109948193Y-53090619D02*
X109852955Y-53043000D01*
X109852955Y-53043000D02*
X109805336Y-52995380D01*
X109805336Y-52995380D02*
X109757717Y-52900142D01*
X109757717Y-52900142D02*
X109757717Y-52614428D01*
X109757717Y-52614428D02*
X109805336Y-52519190D01*
X109805336Y-52519190D02*
X109852955Y-52471571D01*
X109852955Y-52471571D02*
X109948193Y-52423952D01*
X109948193Y-52423952D02*
X110138669Y-52423952D01*
X110138669Y-52423952D02*
X110233907Y-52471571D01*
D12*
X164917285Y-50870428D02*
X164417285Y-50156142D01*
X164060142Y-50870428D02*
X164060142Y-49370428D01*
X164060142Y-49370428D02*
X164631571Y-49370428D01*
X164631571Y-49370428D02*
X164774428Y-49441857D01*
X164774428Y-49441857D02*
X164845857Y-49513285D01*
X164845857Y-49513285D02*
X164917285Y-49656142D01*
X164917285Y-49656142D02*
X164917285Y-49870428D01*
X164917285Y-49870428D02*
X164845857Y-50013285D01*
X164845857Y-50013285D02*
X164774428Y-50084714D01*
X164774428Y-50084714D02*
X164631571Y-50156142D01*
X164631571Y-50156142D02*
X164060142Y-50156142D01*
X165488714Y-50441857D02*
X166203000Y-50441857D01*
X165345857Y-50870428D02*
X165845857Y-49370428D01*
X165845857Y-49370428D02*
X166345857Y-50870428D01*
X166702999Y-49370428D02*
X167060142Y-50870428D01*
X167060142Y-50870428D02*
X167345856Y-49799000D01*
X167345856Y-49799000D02*
X167631571Y-50870428D01*
X167631571Y-50870428D02*
X167988714Y-49370428D01*
X178657142Y-48306714D02*
X178871428Y-48378142D01*
X178871428Y-48378142D02*
X178942857Y-48449571D01*
X178942857Y-48449571D02*
X179014285Y-48592428D01*
X179014285Y-48592428D02*
X179014285Y-48806714D01*
X179014285Y-48806714D02*
X178942857Y-48949571D01*
X178942857Y-48949571D02*
X178871428Y-49021000D01*
X178871428Y-49021000D02*
X178728571Y-49092428D01*
X178728571Y-49092428D02*
X178157142Y-49092428D01*
X178157142Y-49092428D02*
X178157142Y-47592428D01*
X178157142Y-47592428D02*
X178657142Y-47592428D01*
X178657142Y-47592428D02*
X178800000Y-47663857D01*
X178800000Y-47663857D02*
X178871428Y-47735285D01*
X178871428Y-47735285D02*
X178942857Y-47878142D01*
X178942857Y-47878142D02*
X178942857Y-48021000D01*
X178942857Y-48021000D02*
X178871428Y-48163857D01*
X178871428Y-48163857D02*
X178800000Y-48235285D01*
X178800000Y-48235285D02*
X178657142Y-48306714D01*
X178657142Y-48306714D02*
X178157142Y-48306714D01*
X179585714Y-48663857D02*
X180300000Y-48663857D01*
X179442857Y-49092428D02*
X179942857Y-47592428D01*
X179942857Y-47592428D02*
X180442857Y-49092428D01*
X180728571Y-47592428D02*
X181585714Y-47592428D01*
X181157142Y-49092428D02*
X181157142Y-47592428D01*
X151851428Y-47839285D02*
X152851428Y-48196428D01*
X152851428Y-48196428D02*
X151851428Y-48553571D01*
X152780000Y-49767857D02*
X152851428Y-49624999D01*
X152851428Y-49624999D02*
X152851428Y-49339285D01*
X152851428Y-49339285D02*
X152780000Y-49196428D01*
X152780000Y-49196428D02*
X152708571Y-49124999D01*
X152708571Y-49124999D02*
X152565714Y-49053571D01*
X152565714Y-49053571D02*
X152137142Y-49053571D01*
X152137142Y-49053571D02*
X151994285Y-49124999D01*
X151994285Y-49124999D02*
X151922857Y-49196428D01*
X151922857Y-49196428D02*
X151851428Y-49339285D01*
X151851428Y-49339285D02*
X151851428Y-49624999D01*
X151851428Y-49624999D02*
X151922857Y-49767857D01*
X152780000Y-51053571D02*
X152851428Y-50910713D01*
X152851428Y-50910713D02*
X152851428Y-50624999D01*
X152851428Y-50624999D02*
X152780000Y-50482142D01*
X152780000Y-50482142D02*
X152708571Y-50410713D01*
X152708571Y-50410713D02*
X152565714Y-50339285D01*
X152565714Y-50339285D02*
X152137142Y-50339285D01*
X152137142Y-50339285D02*
X151994285Y-50410713D01*
X151994285Y-50410713D02*
X151922857Y-50482142D01*
X151922857Y-50482142D02*
X151851428Y-50624999D01*
X151851428Y-50624999D02*
X151851428Y-50910713D01*
X151851428Y-50910713D02*
X151922857Y-51053571D01*
D13*
%TO.C,K13*%
X140445886Y-49006871D02*
X140445886Y-48006871D01*
X141017314Y-49006871D02*
X140588743Y-48435442D01*
X141017314Y-48006871D02*
X140445886Y-48578299D01*
X141969695Y-49006871D02*
X141398267Y-49006871D01*
X141683981Y-49006871D02*
X141683981Y-48006871D01*
X141683981Y-48006871D02*
X141588743Y-48149728D01*
X141588743Y-48149728D02*
X141493505Y-48244966D01*
X141493505Y-48244966D02*
X141398267Y-48292585D01*
X142303029Y-48006871D02*
X142922076Y-48006871D01*
X142922076Y-48006871D02*
X142588743Y-48387823D01*
X142588743Y-48387823D02*
X142731600Y-48387823D01*
X142731600Y-48387823D02*
X142826838Y-48435442D01*
X142826838Y-48435442D02*
X142874457Y-48483061D01*
X142874457Y-48483061D02*
X142922076Y-48578299D01*
X142922076Y-48578299D02*
X142922076Y-48816394D01*
X142922076Y-48816394D02*
X142874457Y-48911632D01*
X142874457Y-48911632D02*
X142826838Y-48959252D01*
X142826838Y-48959252D02*
X142731600Y-49006871D01*
X142731600Y-49006871D02*
X142445886Y-49006871D01*
X142445886Y-49006871D02*
X142350648Y-48959252D01*
X142350648Y-48959252D02*
X142303029Y-48911632D01*
%TO.C,BATTCONN2*%
X186592381Y-48341809D02*
X186735238Y-48389428D01*
X186735238Y-48389428D02*
X186782857Y-48437047D01*
X186782857Y-48437047D02*
X186830476Y-48532285D01*
X186830476Y-48532285D02*
X186830476Y-48675142D01*
X186830476Y-48675142D02*
X186782857Y-48770380D01*
X186782857Y-48770380D02*
X186735238Y-48818000D01*
X186735238Y-48818000D02*
X186640000Y-48865619D01*
X186640000Y-48865619D02*
X186259048Y-48865619D01*
X186259048Y-48865619D02*
X186259048Y-47865619D01*
X186259048Y-47865619D02*
X186592381Y-47865619D01*
X186592381Y-47865619D02*
X186687619Y-47913238D01*
X186687619Y-47913238D02*
X186735238Y-47960857D01*
X186735238Y-47960857D02*
X186782857Y-48056095D01*
X186782857Y-48056095D02*
X186782857Y-48151333D01*
X186782857Y-48151333D02*
X186735238Y-48246571D01*
X186735238Y-48246571D02*
X186687619Y-48294190D01*
X186687619Y-48294190D02*
X186592381Y-48341809D01*
X186592381Y-48341809D02*
X186259048Y-48341809D01*
X187259048Y-48484666D02*
X188020953Y-48484666D01*
X187640000Y-48865619D02*
X187640000Y-48103714D01*
%TO.C,D24*%
X117657714Y-49738619D02*
X117657714Y-48738619D01*
X117657714Y-48738619D02*
X117895809Y-48738619D01*
X117895809Y-48738619D02*
X118038666Y-48786238D01*
X118038666Y-48786238D02*
X118133904Y-48881476D01*
X118133904Y-48881476D02*
X118181523Y-48976714D01*
X118181523Y-48976714D02*
X118229142Y-49167190D01*
X118229142Y-49167190D02*
X118229142Y-49310047D01*
X118229142Y-49310047D02*
X118181523Y-49500523D01*
X118181523Y-49500523D02*
X118133904Y-49595761D01*
X118133904Y-49595761D02*
X118038666Y-49691000D01*
X118038666Y-49691000D02*
X117895809Y-49738619D01*
X117895809Y-49738619D02*
X117657714Y-49738619D01*
X118610095Y-48833857D02*
X118657714Y-48786238D01*
X118657714Y-48786238D02*
X118752952Y-48738619D01*
X118752952Y-48738619D02*
X118991047Y-48738619D01*
X118991047Y-48738619D02*
X119086285Y-48786238D01*
X119086285Y-48786238D02*
X119133904Y-48833857D01*
X119133904Y-48833857D02*
X119181523Y-48929095D01*
X119181523Y-48929095D02*
X119181523Y-49024333D01*
X119181523Y-49024333D02*
X119133904Y-49167190D01*
X119133904Y-49167190D02*
X118562476Y-49738619D01*
X118562476Y-49738619D02*
X119181523Y-49738619D01*
X120038666Y-49071952D02*
X120038666Y-49738619D01*
X119800571Y-48691000D02*
X119562476Y-49405285D01*
X119562476Y-49405285D02*
X120181523Y-49405285D01*
%TO.C,BATTCONN1*%
X156138381Y-50198809D02*
X156281238Y-50246428D01*
X156281238Y-50246428D02*
X156328857Y-50294047D01*
X156328857Y-50294047D02*
X156376476Y-50389285D01*
X156376476Y-50389285D02*
X156376476Y-50532142D01*
X156376476Y-50532142D02*
X156328857Y-50627380D01*
X156328857Y-50627380D02*
X156281238Y-50675000D01*
X156281238Y-50675000D02*
X156186000Y-50722619D01*
X156186000Y-50722619D02*
X155805048Y-50722619D01*
X155805048Y-50722619D02*
X155805048Y-49722619D01*
X155805048Y-49722619D02*
X156138381Y-49722619D01*
X156138381Y-49722619D02*
X156233619Y-49770238D01*
X156233619Y-49770238D02*
X156281238Y-49817857D01*
X156281238Y-49817857D02*
X156328857Y-49913095D01*
X156328857Y-49913095D02*
X156328857Y-50008333D01*
X156328857Y-50008333D02*
X156281238Y-50103571D01*
X156281238Y-50103571D02*
X156233619Y-50151190D01*
X156233619Y-50151190D02*
X156138381Y-50198809D01*
X156138381Y-50198809D02*
X155805048Y-50198809D01*
X156805048Y-50341666D02*
X157566953Y-50341666D01*
X157186000Y-50722619D02*
X157186000Y-49960714D01*
%TO.C,G\u002A\u002A\u002A*%
G36*
X154430539Y-118223368D02*
G01*
X154511469Y-118236191D01*
X154582676Y-118255406D01*
X154621039Y-118272563D01*
X154667086Y-118308524D01*
X154735871Y-118369879D01*
X154821557Y-118450787D01*
X154918310Y-118545404D01*
X155020293Y-118647891D01*
X155121671Y-118752404D01*
X155216608Y-118853102D01*
X155299269Y-118944142D01*
X155346705Y-118999000D01*
X155626176Y-119364362D01*
X155872573Y-119754757D01*
X156084646Y-120167300D01*
X156261145Y-120599104D01*
X156400818Y-121047284D01*
X156502414Y-121508956D01*
X156539425Y-121750667D01*
X156553304Y-121896064D01*
X156562069Y-122072905D01*
X156565879Y-122270628D01*
X156564888Y-122478672D01*
X156559254Y-122686478D01*
X156549131Y-122883483D01*
X156534678Y-123059128D01*
X156518129Y-123190000D01*
X156423096Y-123662249D01*
X156290123Y-124117505D01*
X156120341Y-124554125D01*
X155914879Y-124970466D01*
X155674868Y-125364886D01*
X155401438Y-125735742D01*
X155095717Y-126081391D01*
X154758837Y-126400191D01*
X154391926Y-126690499D01*
X153996116Y-126950673D01*
X153888196Y-127013414D01*
X153780427Y-127073062D01*
X153685232Y-127123125D01*
X153608614Y-127160664D01*
X153556572Y-127182736D01*
X153535123Y-127186422D01*
X153514380Y-127183207D01*
X153462982Y-127178868D01*
X153400125Y-127174828D01*
X153331605Y-127168771D01*
X153283832Y-127160409D01*
X153267929Y-127152448D01*
X153285595Y-127137109D01*
X153333054Y-127107893D01*
X153402124Y-127069639D01*
X153451604Y-127043817D01*
X153784403Y-126853550D01*
X154112904Y-126626549D01*
X154431024Y-126368375D01*
X154732683Y-126084588D01*
X155011796Y-125780749D01*
X155262283Y-125462420D01*
X155397924Y-125264274D01*
X155621150Y-124887771D01*
X155808924Y-124502734D01*
X155963393Y-124103409D01*
X156086704Y-123684036D01*
X156181003Y-123238861D01*
X156203041Y-123105334D01*
X156219959Y-122962566D01*
X156232325Y-122788119D01*
X156240135Y-122591952D01*
X156243387Y-122384028D01*
X156242078Y-122174308D01*
X156236208Y-121972754D01*
X156225772Y-121789328D01*
X156210769Y-121633991D01*
X156203392Y-121581334D01*
X156108773Y-121113329D01*
X155974239Y-120655549D01*
X155801231Y-120211702D01*
X155591190Y-119785498D01*
X155352191Y-119390584D01*
X155187765Y-119158314D01*
X155008928Y-118935431D01*
X154807782Y-118712672D01*
X154576425Y-118480772D01*
X154576135Y-118480493D01*
X154294416Y-118209585D01*
X154430539Y-118223368D01*
G37*
G36*
X145575152Y-126623235D02*
G01*
X145927327Y-126623235D01*
X145957616Y-126657586D01*
X146024308Y-126674521D01*
X146129313Y-126677237D01*
X146208750Y-126673543D01*
X146316500Y-126665018D01*
X146398371Y-126652426D01*
X146470818Y-126631809D01*
X146550295Y-126599207D01*
X146585849Y-126582812D01*
X146683518Y-126533911D01*
X146748161Y-126489912D01*
X146781715Y-126443231D01*
X146786116Y-126386283D01*
X146763299Y-126311482D01*
X146715200Y-126211244D01*
X146691931Y-126167212D01*
X146643124Y-126079450D01*
X146607673Y-126025220D01*
X146581607Y-125999432D01*
X146560955Y-125996992D01*
X146559639Y-125997550D01*
X146513525Y-126008894D01*
X146467693Y-126012017D01*
X146415497Y-126027286D01*
X146345327Y-126069919D01*
X146264681Y-126133464D01*
X146181056Y-126211471D01*
X146101947Y-126297489D01*
X146035789Y-126383689D01*
X145968322Y-126489485D01*
X145931532Y-126568267D01*
X145927327Y-126623235D01*
X145575152Y-126623235D01*
X145574993Y-126611716D01*
X145592387Y-126459766D01*
X145643770Y-126310715D01*
X145731774Y-126157790D01*
X145774375Y-126098563D01*
X145827866Y-126033398D01*
X145896966Y-125957139D01*
X145973471Y-125877970D01*
X146049178Y-125804073D01*
X146115884Y-125743632D01*
X146165386Y-125704831D01*
X146174832Y-125699075D01*
X146210604Y-125673851D01*
X146264974Y-125629168D01*
X146324140Y-125576542D01*
X146382218Y-125526311D01*
X146430952Y-125490266D01*
X146460031Y-125476012D01*
X146460461Y-125476000D01*
X146494207Y-125461525D01*
X146526250Y-125433667D01*
X146576247Y-125397175D01*
X146631895Y-125395779D01*
X146697403Y-125430569D01*
X146771766Y-125497274D01*
X146836664Y-125574436D01*
X146871940Y-125641109D01*
X146875751Y-125692397D01*
X146855257Y-125718846D01*
X146845443Y-125729008D01*
X146843972Y-125747201D01*
X146853009Y-125779569D01*
X146874722Y-125832263D01*
X146911277Y-125911428D01*
X146956136Y-126005167D01*
X147023736Y-126150114D01*
X147072250Y-126266395D01*
X147104218Y-126361734D01*
X147122179Y-126443858D01*
X147128674Y-126520493D01*
X147128808Y-126530433D01*
X147120393Y-126635509D01*
X147090742Y-126714279D01*
X147045592Y-126769902D01*
X146957902Y-126836448D01*
X146837725Y-126902068D01*
X146694786Y-126962643D01*
X146538811Y-127014058D01*
X146379525Y-127052195D01*
X146378083Y-127052470D01*
X146295115Y-127068074D01*
X146235453Y-127077253D01*
X146185498Y-127080110D01*
X146131651Y-127076743D01*
X146060313Y-127067253D01*
X145981968Y-127055389D01*
X145866608Y-127031821D01*
X145780446Y-126996871D01*
X145710515Y-126942932D01*
X145643847Y-126862396D01*
X145637250Y-126853138D01*
X145603072Y-126799857D01*
X145584070Y-126751558D01*
X145576107Y-126692198D01*
X145575152Y-126623235D01*
G37*
G36*
X153305265Y-113797292D02*
G01*
X153299583Y-114289417D01*
X153103932Y-114304465D01*
X152787462Y-114348536D01*
X152489357Y-114430736D01*
X152209291Y-114551213D01*
X151946934Y-114710112D01*
X151701961Y-114907580D01*
X151652064Y-114954572D01*
X151448708Y-115174000D01*
X151284173Y-115402977D01*
X151155157Y-115646849D01*
X151058357Y-115910958D01*
X151055916Y-115919250D01*
X151000834Y-116163204D01*
X150972640Y-116419497D01*
X150970237Y-116681613D01*
X150992531Y-116943036D01*
X151038427Y-117197248D01*
X151106830Y-117437734D01*
X151196645Y-117657976D01*
X151306777Y-117851458D01*
X151401177Y-117974102D01*
X151530915Y-118127318D01*
X151644544Y-118277359D01*
X151724460Y-118393552D01*
X151790228Y-118484572D01*
X151870489Y-118584566D01*
X151949002Y-118673400D01*
X151956713Y-118681500D01*
X152050435Y-118779957D01*
X152160884Y-118897537D01*
X152284668Y-119030505D01*
X152418398Y-119175129D01*
X152558683Y-119327676D01*
X152702134Y-119484413D01*
X152845358Y-119641607D01*
X152984967Y-119795525D01*
X153117569Y-119942433D01*
X153239774Y-120078600D01*
X153348192Y-120200291D01*
X153439432Y-120303774D01*
X153510105Y-120385315D01*
X153556819Y-120441182D01*
X153568721Y-120456416D01*
X153690622Y-120638707D01*
X153805600Y-120846569D01*
X153906003Y-121064369D01*
X153984179Y-121276475D01*
X154005426Y-121348500D01*
X154037654Y-121474384D01*
X154061268Y-121588213D01*
X154077567Y-121701139D01*
X154087849Y-121824314D01*
X154093415Y-121968887D01*
X154095434Y-122121084D01*
X154088942Y-122390918D01*
X154064318Y-122632306D01*
X154019038Y-122856153D01*
X153950579Y-123073361D01*
X153856418Y-123294835D01*
X153795571Y-123417015D01*
X153683691Y-123615178D01*
X153562372Y-123793576D01*
X153421017Y-123966837D01*
X153310369Y-124086765D01*
X153052957Y-124326727D01*
X152777773Y-124528378D01*
X152483830Y-124692270D01*
X152170143Y-124818953D01*
X151844029Y-124907239D01*
X151679808Y-124933169D01*
X151488107Y-124949259D01*
X151282649Y-124955374D01*
X151077159Y-124951378D01*
X150885362Y-124937135D01*
X150749827Y-124918058D01*
X150441995Y-124842896D01*
X150139693Y-124731566D01*
X149853550Y-124588503D01*
X149651643Y-124460019D01*
X149568864Y-124398073D01*
X149481467Y-124326791D01*
X149395512Y-124251854D01*
X149317055Y-124178939D01*
X149252155Y-124113725D01*
X149206868Y-124061892D01*
X149187253Y-124029118D01*
X149187084Y-124024509D01*
X149204151Y-124002915D01*
X149247610Y-123958825D01*
X149311979Y-123897164D01*
X149391773Y-123822855D01*
X149481507Y-123740822D01*
X149575697Y-123655989D01*
X149668861Y-123573279D01*
X149755512Y-123497616D01*
X149830168Y-123433923D01*
X149887344Y-123387125D01*
X149921556Y-123362145D01*
X149927972Y-123359334D01*
X149952819Y-123372837D01*
X149999071Y-123408599D01*
X150057657Y-123459495D01*
X150070537Y-123471308D01*
X150287950Y-123646100D01*
X150519339Y-123780939D01*
X150764475Y-123875750D01*
X151023125Y-123930456D01*
X151295056Y-123944981D01*
X151482624Y-123932416D01*
X151750072Y-123882552D01*
X151998908Y-123794941D01*
X152230334Y-123668993D01*
X152445553Y-123504118D01*
X152541634Y-123412823D01*
X152716094Y-123210482D01*
X152859790Y-122990122D01*
X152969405Y-122758105D01*
X153041622Y-122520794D01*
X153060539Y-122417417D01*
X153071872Y-122288550D01*
X153073626Y-122137317D01*
X153066619Y-121977920D01*
X153051672Y-121824561D01*
X153029601Y-121691441D01*
X153015384Y-121634250D01*
X152963118Y-121485137D01*
X152892810Y-121327482D01*
X152812284Y-121176980D01*
X152729366Y-121049328D01*
X152712862Y-121027507D01*
X152680032Y-120987967D01*
X152622021Y-120920868D01*
X152542153Y-120829950D01*
X152443753Y-120718953D01*
X152330145Y-120591615D01*
X152204654Y-120451675D01*
X152070603Y-120302874D01*
X151957353Y-120177670D01*
X151292457Y-119443938D01*
X151174187Y-119456429D01*
X150817561Y-119513704D01*
X150477228Y-119608050D01*
X150156739Y-119738440D01*
X150097945Y-119767426D01*
X149793632Y-119943228D01*
X149510686Y-120149396D01*
X149252076Y-120382295D01*
X149020768Y-120638292D01*
X148819731Y-120913754D01*
X148651931Y-121205048D01*
X148520336Y-121508541D01*
X148430629Y-121808819D01*
X148364178Y-122176622D01*
X148336806Y-122539220D01*
X148348037Y-122894047D01*
X148397391Y-123238536D01*
X148484391Y-123570122D01*
X148608558Y-123886239D01*
X148769414Y-124184320D01*
X148912087Y-124392178D01*
X149062218Y-124580754D01*
X149202975Y-124735609D01*
X149340123Y-124862555D01*
X149479430Y-124967402D01*
X149489583Y-124974178D01*
X149575874Y-125028528D01*
X149675865Y-125087125D01*
X149781883Y-125145971D01*
X149886249Y-125201067D01*
X149981289Y-125248416D01*
X150059328Y-125284022D01*
X150112689Y-125303885D01*
X150127998Y-125306667D01*
X150153900Y-125319277D01*
X150156333Y-125327834D01*
X150174626Y-125343672D01*
X150214541Y-125350488D01*
X150272632Y-125356911D01*
X150317518Y-125370258D01*
X150338641Y-125386337D01*
X150332859Y-125397471D01*
X150300608Y-125403222D01*
X150250459Y-125400276D01*
X150199138Y-125391203D01*
X150163370Y-125378573D01*
X150156333Y-125370346D01*
X150137324Y-125359370D01*
X150088610Y-125347999D01*
X150048258Y-125342097D01*
X149981408Y-125331205D01*
X149930963Y-125317645D01*
X149915967Y-125310317D01*
X149878778Y-125291922D01*
X149828250Y-125276230D01*
X149748038Y-125249671D01*
X149642280Y-125203771D01*
X149520247Y-125143269D01*
X149391213Y-125072903D01*
X149264449Y-124997410D01*
X149194432Y-124952353D01*
X149032407Y-124832592D01*
X148861880Y-124685367D01*
X148693397Y-124521024D01*
X148537502Y-124349906D01*
X148404737Y-124182358D01*
X148393203Y-124166288D01*
X148285347Y-124002348D01*
X148180400Y-123820653D01*
X148085341Y-123634579D01*
X148007148Y-123457502D01*
X147967803Y-123350953D01*
X147879108Y-123018684D01*
X147828664Y-122674581D01*
X147816062Y-122324053D01*
X147840889Y-121972511D01*
X147902738Y-121625369D01*
X148001198Y-121288035D01*
X148135858Y-120965923D01*
X148150800Y-120935750D01*
X148321247Y-120642432D01*
X148527087Y-120367131D01*
X148763840Y-120113645D01*
X149027027Y-119885766D01*
X149312169Y-119687291D01*
X149614786Y-119522013D01*
X149930400Y-119393729D01*
X149996193Y-119372377D01*
X150169439Y-119321728D01*
X150322443Y-119285155D01*
X150471005Y-119259950D01*
X150630924Y-119243405D01*
X150808174Y-119233226D01*
X151089599Y-119221250D01*
X150937944Y-119051917D01*
X150855768Y-118956949D01*
X150766788Y-118849023D01*
X150685977Y-118746451D01*
X150659819Y-118711734D01*
X150533349Y-118540885D01*
X150403049Y-118558075D01*
X150020303Y-118629810D01*
X149647310Y-118742691D01*
X149284321Y-118896612D01*
X148931585Y-119091466D01*
X148589353Y-119327148D01*
X148579416Y-119334722D01*
X148404558Y-119480018D01*
X148223577Y-119651267D01*
X148046112Y-119838072D01*
X147881804Y-120030037D01*
X147740292Y-120216765D01*
X147683964Y-120300437D01*
X147590354Y-120459254D01*
X147497433Y-120640584D01*
X147409119Y-120834767D01*
X147329333Y-121032140D01*
X147261993Y-121223045D01*
X147211018Y-121397819D01*
X147181491Y-121539000D01*
X147169092Y-121604239D01*
X147155294Y-121654756D01*
X147150672Y-121666000D01*
X147143846Y-121696879D01*
X147135209Y-121762327D01*
X147125579Y-121854660D01*
X147115779Y-121966198D01*
X147108829Y-122057584D01*
X147095901Y-122438164D01*
X147113981Y-122795002D01*
X147164164Y-123134313D01*
X147247548Y-123462313D01*
X147365227Y-123785216D01*
X147444819Y-123962584D01*
X147634187Y-124313576D01*
X147854763Y-124641373D01*
X148103794Y-124943509D01*
X148378526Y-125217517D01*
X148676203Y-125460931D01*
X148994072Y-125671285D01*
X149329378Y-125846112D01*
X149679367Y-125982946D01*
X149713326Y-125993894D01*
X149951585Y-126060248D01*
X150208509Y-126115839D01*
X150470161Y-126158409D01*
X150722602Y-126185696D01*
X150951895Y-126195442D01*
X150956535Y-126195443D01*
X151119493Y-126189010D01*
X151308323Y-126171300D01*
X151508685Y-126144267D01*
X151706239Y-126109863D01*
X151886644Y-126070041D01*
X151897277Y-126067351D01*
X152218166Y-125966321D01*
X152541135Y-125827741D01*
X152859048Y-125655381D01*
X153164771Y-125453012D01*
X153384250Y-125281734D01*
X153683026Y-125006659D01*
X153944270Y-124712865D01*
X154168740Y-124399037D01*
X154357193Y-124063860D01*
X154510388Y-123706020D01*
X154629082Y-123324201D01*
X154699905Y-122999500D01*
X154718898Y-122864160D01*
X154733126Y-122701534D01*
X154742442Y-122522060D01*
X154746699Y-122336175D01*
X154745749Y-122154315D01*
X154739444Y-121986918D01*
X154727638Y-121844420D01*
X154717256Y-121771834D01*
X154628279Y-121374688D01*
X154506759Y-121002650D01*
X154350891Y-120651720D01*
X154158871Y-120317897D01*
X153928895Y-119997181D01*
X153900820Y-119962057D01*
X153831022Y-119873172D01*
X153748729Y-119764618D01*
X153665380Y-119651646D01*
X153607134Y-119570474D01*
X153532680Y-119466769D01*
X153440129Y-119340531D01*
X153336019Y-119200440D01*
X153226891Y-119055177D01*
X153119283Y-118913421D01*
X153019737Y-118783854D01*
X152934790Y-118675154D01*
X152896513Y-118627225D01*
X152851367Y-118567235D01*
X152791761Y-118482258D01*
X152725321Y-118383423D01*
X152659673Y-118281860D01*
X152657220Y-118277975D01*
X152583998Y-118163438D01*
X152502476Y-118038375D01*
X152423387Y-117919132D01*
X152366278Y-117834834D01*
X152248255Y-117647992D01*
X152141566Y-117449612D01*
X152050771Y-117249812D01*
X151980428Y-117058712D01*
X151935097Y-116886430D01*
X151932325Y-116871778D01*
X151917566Y-116750903D01*
X151911629Y-116610063D01*
X151914223Y-116464476D01*
X151925054Y-116329359D01*
X151943831Y-116219932D01*
X151944927Y-116215584D01*
X152016496Y-116017132D01*
X152123983Y-115827844D01*
X152260979Y-115656247D01*
X152421076Y-115510869D01*
X152529994Y-115437126D01*
X152654209Y-115369868D01*
X152776189Y-115319074D01*
X152905396Y-115282453D01*
X153051289Y-115257713D01*
X153223328Y-115242564D01*
X153357791Y-115236643D01*
X153489010Y-115232914D01*
X153583696Y-115231498D01*
X153647605Y-115232749D01*
X153686492Y-115237021D01*
X153706113Y-115244669D01*
X153712224Y-115256045D01*
X153712333Y-115258455D01*
X153691924Y-115286535D01*
X153633349Y-115316130D01*
X153601208Y-115327489D01*
X153375557Y-115421474D01*
X153176894Y-115547370D01*
X153007035Y-115703286D01*
X152867799Y-115887331D01*
X152761000Y-116097615D01*
X152706927Y-116257917D01*
X152684044Y-116369782D01*
X152668080Y-116506128D01*
X152659409Y-116654132D01*
X152658406Y-116800972D01*
X152665446Y-116933825D01*
X152680905Y-117039869D01*
X152683717Y-117051667D01*
X152748068Y-117243037D01*
X152841610Y-117435916D01*
X152955739Y-117612737D01*
X152963598Y-117623167D01*
X153002890Y-117672840D01*
X153065909Y-117750102D01*
X153148816Y-117850409D01*
X153247774Y-117969221D01*
X153358945Y-118101994D01*
X153478492Y-118244186D01*
X153602578Y-118391256D01*
X153727363Y-118538661D01*
X153849012Y-118681859D01*
X153963686Y-118816308D01*
X154067548Y-118937465D01*
X154156760Y-119040790D01*
X154227485Y-119121738D01*
X154269083Y-119168334D01*
X154403527Y-119321962D01*
X154543419Y-119492043D01*
X154677683Y-119664628D01*
X154795244Y-119825771D01*
X154822373Y-119865051D01*
X154942515Y-120059019D01*
X155061367Y-120283206D01*
X155173795Y-120525674D01*
X155274662Y-120774483D01*
X155358833Y-121017695D01*
X155421173Y-121243371D01*
X155427798Y-121272577D01*
X155449593Y-121369363D01*
X155471057Y-121460874D01*
X155488579Y-121531833D01*
X155493276Y-121549584D01*
X155501651Y-121601877D01*
X155509050Y-121689504D01*
X155515382Y-121805475D01*
X155520554Y-121942797D01*
X155524474Y-122094481D01*
X155527050Y-122253537D01*
X155528192Y-122412973D01*
X155527807Y-122565799D01*
X155525803Y-122705024D01*
X155522088Y-122823658D01*
X155516571Y-122914710D01*
X155511764Y-122957167D01*
X155496340Y-123056090D01*
X155480348Y-123158056D01*
X155468252Y-123234669D01*
X155408136Y-123522950D01*
X155318597Y-123826088D01*
X155203812Y-124133184D01*
X155067956Y-124433342D01*
X154915206Y-124715662D01*
X154875942Y-124780448D01*
X154647651Y-125110444D01*
X154383530Y-125424661D01*
X154088333Y-125719367D01*
X153766814Y-125990826D01*
X153423725Y-126235306D01*
X153063822Y-126449071D01*
X152691857Y-126628388D01*
X152365465Y-126752362D01*
X152101877Y-126832484D01*
X151850919Y-126891977D01*
X151599086Y-126933073D01*
X151332874Y-126958002D01*
X151055916Y-126968717D01*
X150913202Y-126970087D01*
X150772912Y-126969419D01*
X150645097Y-126966907D01*
X150539809Y-126962746D01*
X150468772Y-126957327D01*
X150012222Y-126886596D01*
X149580330Y-126781670D01*
X149172123Y-126642042D01*
X148786629Y-126467211D01*
X148422874Y-126256671D01*
X148079886Y-126009919D01*
X147756692Y-125726450D01*
X147452319Y-125405761D01*
X147434626Y-125385316D01*
X147164120Y-125040757D01*
X146926627Y-124674890D01*
X146724904Y-124292529D01*
X146561706Y-123898487D01*
X146528303Y-123801890D01*
X146489222Y-123681355D01*
X146457006Y-123573315D01*
X146430121Y-123469953D01*
X146407033Y-123363451D01*
X146386209Y-123245993D01*
X146366113Y-123109762D01*
X146345213Y-122946941D01*
X146322186Y-122751562D01*
X146307390Y-122532791D01*
X146308496Y-122285449D01*
X146324460Y-122019762D01*
X146354240Y-121745953D01*
X146396790Y-121474246D01*
X146451066Y-121214864D01*
X146496791Y-121041584D01*
X146630273Y-120645025D01*
X146793101Y-120275202D01*
X146988213Y-119927064D01*
X147218545Y-119595561D01*
X147487032Y-119275643D01*
X147583377Y-119172925D01*
X147903313Y-118867944D01*
X148243684Y-118595795D01*
X148601502Y-118358209D01*
X148973782Y-118156916D01*
X149357537Y-117993644D01*
X149749781Y-117870123D01*
X149891750Y-117835885D01*
X149983179Y-117815406D01*
X150060236Y-117797771D01*
X150112805Y-117785315D01*
X150129254Y-117781041D01*
X150142282Y-117765683D01*
X150137157Y-117727243D01*
X150122565Y-117682278D01*
X150085363Y-117560274D01*
X150048856Y-117407626D01*
X150015292Y-117235993D01*
X149986919Y-117057036D01*
X149965987Y-116882413D01*
X149963769Y-116858870D01*
X149951392Y-116522925D01*
X149973288Y-116182454D01*
X150027945Y-115845819D01*
X150113848Y-115521381D01*
X150229486Y-115217500D01*
X150280189Y-115110586D01*
X150424076Y-114859257D01*
X150600386Y-114608759D01*
X150800398Y-114369879D01*
X151015390Y-114153402D01*
X151144979Y-114041166D01*
X151428258Y-113833583D01*
X151727059Y-113657651D01*
X152036623Y-113515197D01*
X152352192Y-113408047D01*
X152669006Y-113338028D01*
X152982307Y-113306967D01*
X153061848Y-113305498D01*
X153310946Y-113305167D01*
X153305265Y-113797292D01*
G37*
G36*
X150585361Y-125440950D02*
G01*
X150586064Y-125447898D01*
X150552929Y-125450736D01*
X150547916Y-125450707D01*
X150515088Y-125447655D01*
X150518221Y-125441213D01*
X150521861Y-125440165D01*
X150567968Y-125437066D01*
X150585361Y-125440950D01*
G37*
G36*
X156664974Y-116515652D02*
G01*
X156715476Y-116552972D01*
X156775831Y-116604838D01*
X156836802Y-116662793D01*
X156889150Y-116718383D01*
X156923636Y-116763153D01*
X156927931Y-116770754D01*
X156944969Y-116825753D01*
X156959327Y-116911780D01*
X156970190Y-117017570D01*
X156976743Y-117131860D01*
X156978173Y-117243384D01*
X156973664Y-117340879D01*
X156970975Y-117366165D01*
X156955571Y-117458883D01*
X156931416Y-117570400D01*
X156901720Y-117688708D01*
X156869694Y-117801801D01*
X156838546Y-117897674D01*
X156811486Y-117964320D01*
X156810603Y-117966074D01*
X156789541Y-118029620D01*
X156781500Y-118094406D01*
X156761916Y-118171638D01*
X156708823Y-118235531D01*
X156630702Y-118278093D01*
X156573639Y-118290240D01*
X156514289Y-118291954D01*
X156476659Y-118276208D01*
X156441113Y-118234580D01*
X156439901Y-118232882D01*
X156406920Y-118168468D01*
X156391870Y-118089347D01*
X156395158Y-117990559D01*
X156417191Y-117867139D01*
X156458377Y-117714127D01*
X156491025Y-117610405D01*
X156539561Y-117457770D01*
X156573923Y-117336797D01*
X156595197Y-117239661D01*
X156604469Y-117158536D01*
X156602828Y-117085598D01*
X156591358Y-117013022D01*
X156580368Y-116967000D01*
X156555298Y-116842898D01*
X156545644Y-116728898D01*
X156550672Y-116631442D01*
X156569645Y-116556972D01*
X156601827Y-116511931D01*
X156633564Y-116501334D01*
X156664974Y-116515652D01*
G37*
G36*
X155716564Y-116999859D02*
G01*
X155731472Y-117029233D01*
X155760331Y-117077853D01*
X155770468Y-117094000D01*
X155798237Y-117148968D01*
X155812951Y-117212878D01*
X155817907Y-117301139D01*
X155818009Y-117316250D01*
X155818416Y-117464417D01*
X155940942Y-117477582D01*
X156020384Y-117490425D01*
X156076376Y-117513525D01*
X156127756Y-117555155D01*
X156135895Y-117563173D01*
X156187159Y-117627354D01*
X156198335Y-117678397D01*
X156169104Y-117717662D01*
X156099150Y-117746511D01*
X156092854Y-117748142D01*
X156016483Y-117763059D01*
X155942645Y-117770957D01*
X155928106Y-117771334D01*
X155835052Y-117774442D01*
X155774681Y-117787812D01*
X155737551Y-117817506D01*
X155714220Y-117869589D01*
X155702434Y-117916273D01*
X155661721Y-118057135D01*
X155610761Y-118157297D01*
X155548910Y-118217293D01*
X155475520Y-118237652D01*
X155389947Y-118218909D01*
X155355055Y-118202162D01*
X155293861Y-118169019D01*
X155306400Y-117991343D01*
X155311899Y-117900369D01*
X155309645Y-117845110D01*
X155295016Y-117819065D01*
X155263388Y-117815732D01*
X155210138Y-117828609D01*
X155194000Y-117833281D01*
X155113340Y-117836532D01*
X155041039Y-117802535D01*
X154997681Y-117752533D01*
X154976728Y-117708537D01*
X154973253Y-117681894D01*
X154974022Y-117680866D01*
X154974882Y-117655302D01*
X154964807Y-117629970D01*
X154951981Y-117586709D01*
X154967910Y-117553025D01*
X155016030Y-117527003D01*
X155099779Y-117506723D01*
X155213563Y-117491240D01*
X155310159Y-117480060D01*
X155371587Y-117470386D01*
X155404852Y-117460020D01*
X155416957Y-117446767D01*
X155414905Y-117428432D01*
X155414815Y-117428147D01*
X155412752Y-117382778D01*
X155420717Y-117362859D01*
X155437345Y-117329719D01*
X155460738Y-117270988D01*
X155478445Y-117221000D01*
X155505255Y-117150566D01*
X155532601Y-117093050D01*
X155547843Y-117069476D01*
X155585443Y-117038220D01*
X155634550Y-117011561D01*
X155681356Y-116995193D01*
X155712055Y-116994815D01*
X155716564Y-116999859D01*
G37*
G36*
X154320989Y-113283200D02*
G01*
X154364516Y-113284000D01*
X154463637Y-113288730D01*
X154522022Y-113302980D01*
X154535463Y-113312895D01*
X154541675Y-113334606D01*
X154546663Y-113384682D01*
X154550468Y-113465245D01*
X154553131Y-113578419D01*
X154554692Y-113726330D01*
X154555192Y-113911099D01*
X154554672Y-114134852D01*
X154553930Y-114281270D01*
X154548416Y-115220750D01*
X154361144Y-115243158D01*
X154271992Y-115253430D01*
X154215909Y-115257432D01*
X154183933Y-115253957D01*
X154167102Y-115241796D01*
X154156455Y-115219739D01*
X154154769Y-115215322D01*
X154150740Y-115184028D01*
X154147000Y-115115023D01*
X154143641Y-115012926D01*
X154140753Y-114882358D01*
X154138427Y-114727941D01*
X154136755Y-114554295D01*
X154135827Y-114366040D01*
X154135666Y-114246450D01*
X154135391Y-114018807D01*
X154135133Y-113829904D01*
X154135745Y-113676159D01*
X154138078Y-113553988D01*
X154142986Y-113459806D01*
X154151319Y-113390030D01*
X154163931Y-113341076D01*
X154181673Y-113309360D01*
X154205398Y-113291298D01*
X154235957Y-113283307D01*
X154274204Y-113281802D01*
X154320989Y-113283200D01*
G37*
%TO.C,K13*%
X134660172Y-49799252D02*
X135660172Y-49799252D01*
X134660172Y-50799252D02*
X134660172Y-49799252D01*
X134660172Y-63799252D02*
X134660172Y-62799252D01*
X135660172Y-63799252D02*
X134660172Y-63799252D01*
X147660172Y-49799252D02*
X148660172Y-49799252D01*
X148660172Y-49799252D02*
X148660172Y-50799252D01*
X148660172Y-62799252D02*
X148660172Y-63799252D01*
X148660172Y-63799252D02*
X147660172Y-63799252D01*
%TO.C,SW23*%
X155833524Y-90481092D02*
X164458524Y-90481092D01*
X155833524Y-94389092D02*
X155833524Y-90481092D01*
X155833524Y-94435092D02*
X160883524Y-94481092D01*
X166733524Y-92435092D02*
X166733524Y-96380092D01*
X166733524Y-96389092D02*
X163123524Y-96389092D01*
X163118523Y-96365091D02*
G75*
G03*
X160858524Y-94485093I-2069999J-190001D01*
G01*
X166722523Y-92365092D02*
G75*
G03*
X164458524Y-90481093I-2073999J-190000D01*
G01*
%TO.C,SW6*%
X79624884Y-76251510D02*
X88249884Y-76251510D01*
X79624884Y-80159510D02*
X79624884Y-76251510D01*
X79624884Y-80205510D02*
X84674884Y-80251510D01*
X90524884Y-78205510D02*
X90524884Y-82150510D01*
X90524884Y-82159510D02*
X86914884Y-82159510D01*
X86909883Y-82135509D02*
G75*
G03*
X84649884Y-80255511I-2069999J-190001D01*
G01*
X90513883Y-78135510D02*
G75*
G03*
X88249884Y-76251511I-2073999J-190000D01*
G01*
%TO.C,D21*%
X180127001Y-86552000D02*
X180127001Y-85152000D01*
X180127001Y-85852000D02*
X179227001Y-86552000D01*
X179227001Y-86552000D02*
X179227001Y-85152000D01*
X179227001Y-85152000D02*
X180127001Y-85852000D01*
%TO.C,D15*%
X141900001Y-119953000D02*
X141900001Y-118553000D01*
X141900001Y-119253000D02*
X141000001Y-119953000D01*
X141000001Y-119953000D02*
X141000001Y-118553000D01*
X141000001Y-118553000D02*
X141900001Y-119253000D01*
%TO.C,SW32*%
X191675571Y-110430321D02*
X195988071Y-102960852D01*
X195059998Y-112384321D02*
X191675571Y-110430321D01*
X195099836Y-112407321D02*
X197664673Y-108056893D01*
X198817785Y-101967644D02*
X202234255Y-103940144D01*
X202242049Y-103944644D02*
X200437049Y-107070996D01*
X200413763Y-107063327D02*
G75*
G03*
X197655638Y-108080543I-870454J-1887671D01*
G01*
X198751663Y-101942170D02*
G75*
G03*
X195988071Y-102960852I-872455J-1891137D01*
G01*
%TO.C,SW26*%
X174945222Y-73869990D02*
X183570222Y-73869990D01*
X174945222Y-77777990D02*
X174945222Y-73869990D01*
X174945222Y-77823990D02*
X179995222Y-77869990D01*
X185845222Y-75823990D02*
X185845222Y-79768990D01*
X185845222Y-79777990D02*
X182235222Y-79777990D01*
X182230221Y-79753989D02*
G75*
G03*
X179970222Y-77873991I-2069999J-190001D01*
G01*
X185834221Y-75753990D02*
G75*
G03*
X183570222Y-73869991I-2073999J-190000D01*
G01*
%TO.C,SW12*%
X98677044Y-111974310D02*
X107302044Y-111974310D01*
X98677044Y-115882310D02*
X98677044Y-111974310D01*
X98677044Y-115928310D02*
X103727044Y-115974310D01*
X109577044Y-113928310D02*
X109577044Y-117873310D01*
X109577044Y-117882310D02*
X105967044Y-117882310D01*
X105962043Y-117858309D02*
G75*
G03*
X103702044Y-115978311I-2069999J-190001D01*
G01*
X109566043Y-113858310D02*
G75*
G03*
X107302044Y-111974311I-2073999J-190000D01*
G01*
%TO.C,SW31*%
X193937844Y-78573492D02*
X202562844Y-78573492D01*
X193937844Y-82481492D02*
X193937844Y-78573492D01*
X193937844Y-82527492D02*
X198987844Y-82573492D01*
X204837844Y-80527492D02*
X204837844Y-84472492D01*
X204837844Y-84481492D02*
X201227844Y-84481492D01*
X201222843Y-84457491D02*
G75*
G03*
X198962844Y-82577493I-2069999J-190001D01*
G01*
X204826843Y-80457492D02*
G75*
G03*
X202562844Y-78573493I-2073999J-190000D01*
G01*
%TO.C,SW15*%
X117669666Y-90481092D02*
X126294666Y-90481092D01*
X117669666Y-94389092D02*
X117669666Y-90481092D01*
X117669666Y-94435092D02*
X122719666Y-94481092D01*
X128569666Y-92435092D02*
X128569666Y-96380092D01*
X128569666Y-96389092D02*
X124959666Y-96389092D01*
X124954665Y-96365091D02*
G75*
G03*
X122694666Y-94485093I-2069999J-190001D01*
G01*
X128558665Y-92365092D02*
G75*
G03*
X126294666Y-90481093I-2073999J-190000D01*
G01*
%TO.C,D27*%
X199685001Y-72455000D02*
X199685001Y-71055000D01*
X199685001Y-71755000D02*
X198785001Y-72455000D01*
X198785001Y-72455000D02*
X198785001Y-71055000D01*
X198785001Y-71055000D02*
X199685001Y-71755000D01*
%TO.C,D2*%
X84955000Y-88711000D02*
X84955000Y-87311000D01*
X84955000Y-88011000D02*
X84055000Y-88711000D01*
X84055000Y-88711000D02*
X84055000Y-87311000D01*
X84055000Y-87311000D02*
X84955000Y-88011000D01*
%TO.C,SW20*%
X136781364Y-107211270D02*
X145406364Y-107211270D01*
X136781364Y-111119270D02*
X136781364Y-107211270D01*
X136781364Y-111165270D02*
X141831364Y-111211270D01*
X147681364Y-109165270D02*
X147681364Y-113110270D01*
X147681364Y-113119270D02*
X144071364Y-113119270D01*
X144066363Y-113095269D02*
G75*
G03*
X141806364Y-111215271I-2069999J-190001D01*
G01*
X147670363Y-109095270D02*
G75*
G03*
X145406364Y-107211271I-2073999J-190000D01*
G01*
%TO.C,D9*%
X122928000Y-103062000D02*
X122928000Y-101662000D01*
X122928000Y-102362000D02*
X122028000Y-103062000D01*
X122028000Y-103062000D02*
X122028000Y-101662000D01*
X122028000Y-101662000D02*
X122928000Y-102362000D01*
%TO.C,SW27*%
X174885684Y-92862612D02*
X183510684Y-92862612D01*
X174885684Y-96770612D02*
X174885684Y-92862612D01*
X174885684Y-96816612D02*
X179935684Y-96862612D01*
X185785684Y-94816612D02*
X185785684Y-98761612D01*
X185785684Y-98770612D02*
X182175684Y-98770612D01*
X182170683Y-98746611D02*
G75*
G03*
X179910684Y-96866613I-2069999J-190001D01*
G01*
X185774683Y-94746612D02*
G75*
G03*
X183510684Y-92862613I-2073999J-190000D01*
G01*
D14*
%TO.C,D24*%
X120706000Y-50951200D02*
X121233600Y-50951200D01*
X120706000Y-50443200D02*
X120706000Y-50951200D01*
D13*
%TO.C,D14*%
X142359000Y-100522000D02*
X142359000Y-99122000D01*
X142359000Y-99822000D02*
X141459000Y-100522000D01*
X141459000Y-100522000D02*
X141459000Y-99122000D01*
X141459000Y-99122000D02*
X142359000Y-99822000D01*
%TO.C,D25*%
X200160000Y-95566000D02*
X200160000Y-96966000D01*
X200160000Y-96266000D02*
X201060000Y-95566000D01*
X201060000Y-95566000D02*
X201060000Y-96966000D01*
X201060000Y-96966000D02*
X200160000Y-96266000D01*
%TO.C,D7*%
X104082999Y-124398000D02*
X104082999Y-122998000D01*
X104082999Y-123698000D02*
X103182999Y-124398000D01*
X103182999Y-124398000D02*
X103182999Y-122998000D01*
X103182999Y-122998000D02*
X104082999Y-123698000D01*
%TO.C,SW9*%
X98736582Y-54817830D02*
X107361582Y-54817830D01*
X98736582Y-58725830D02*
X98736582Y-54817830D01*
X98736582Y-58771830D02*
X103786582Y-58817830D01*
X109636582Y-56771830D02*
X109636582Y-60716830D01*
X109636582Y-60725830D02*
X106026582Y-60725830D01*
X106021581Y-60701829D02*
G75*
G03*
X103761582Y-58821831I-2069999J-190001D01*
G01*
X109625581Y-56701830D02*
G75*
G03*
X107361582Y-54817831I-2073999J-190000D01*
G01*
%TO.C,SW7*%
X79624884Y-95303670D02*
X88249884Y-95303670D01*
X79624884Y-99211670D02*
X79624884Y-95303670D01*
X79624884Y-99257670D02*
X84674884Y-99303670D01*
X90524884Y-97257670D02*
X90524884Y-101202670D01*
X90524884Y-101211670D02*
X86914884Y-101211670D01*
X86909883Y-101187669D02*
G75*
G03*
X84649884Y-99307671I-2069999J-190001D01*
G01*
X90513883Y-97187670D02*
G75*
G03*
X88249884Y-95303671I-2073999J-190000D01*
G01*
%TO.C,SW25*%
X174885684Y-54758292D02*
X183510684Y-54758292D01*
X174885684Y-58666292D02*
X174885684Y-54758292D01*
X174885684Y-58712292D02*
X179935684Y-58758292D01*
X185785684Y-56712292D02*
X185785684Y-60657292D01*
X185785684Y-60666292D02*
X182175684Y-60666292D01*
X182170683Y-60642291D02*
G75*
G03*
X179910684Y-58762293I-2069999J-190001D01*
G01*
X185774683Y-56642292D02*
G75*
G03*
X183510684Y-54758293I-2073999J-190000D01*
G01*
%TO.C,SW11*%
X98736582Y-92862612D02*
X107361582Y-92862612D01*
X98736582Y-96770612D02*
X98736582Y-92862612D01*
X98736582Y-96816612D02*
X103786582Y-96862612D01*
X109636582Y-94816612D02*
X109636582Y-98761612D01*
X109636582Y-98770612D02*
X106026582Y-98770612D01*
X106021581Y-98746611D02*
G75*
G03*
X103761582Y-96866613I-2069999J-190001D01*
G01*
X109625581Y-94746612D02*
G75*
G03*
X107361582Y-92862613I-2073999J-190000D01*
G01*
%TO.C,D19*%
X161155000Y-65216000D02*
X161155000Y-63816000D01*
X161155000Y-64516000D02*
X160255000Y-65216000D01*
X160255000Y-65216000D02*
X160255000Y-63816000D01*
X160255000Y-63816000D02*
X161155000Y-64516000D01*
%TO.C,D18*%
X161585001Y-83631000D02*
X161585001Y-82231000D01*
X161585001Y-82931000D02*
X160685001Y-83631000D01*
X160685001Y-83631000D02*
X160685001Y-82231000D01*
X160685001Y-82231000D02*
X161585001Y-82931000D01*
%TO.C,SW14*%
X117729204Y-71488470D02*
X126354204Y-71488470D01*
X117729204Y-75396470D02*
X117729204Y-71488470D01*
X117729204Y-75442470D02*
X122779204Y-75488470D01*
X128629204Y-73442470D02*
X128629204Y-77387470D01*
X128629204Y-77396470D02*
X125019204Y-77396470D01*
X125014203Y-77372469D02*
G75*
G03*
X122754204Y-75492471I-2069999J-190001D01*
G01*
X128618203Y-73372470D02*
G75*
G03*
X126354204Y-71488471I-2073999J-190000D01*
G01*
%TO.C,SW21*%
X155833524Y-52376772D02*
X164458524Y-52376772D01*
X155833524Y-56284772D02*
X155833524Y-52376772D01*
X155833524Y-56330772D02*
X160883524Y-56376772D01*
X166733524Y-54330772D02*
X166733524Y-58275772D01*
X166733524Y-58284772D02*
X163123524Y-58284772D01*
X163118523Y-58260771D02*
G75*
G03*
X160858524Y-56380773I-2069999J-190001D01*
G01*
X166722523Y-54260772D02*
G75*
G03*
X164458524Y-52376773I-2073999J-190000D01*
G01*
%TO.C,D23*%
X176417421Y-125008472D02*
X175427472Y-125998421D01*
X175922447Y-125503447D02*
X177053817Y-125644868D01*
X177053817Y-125644868D02*
X176063868Y-126634817D01*
X176063868Y-126634817D02*
X175922447Y-125503447D01*
%TO.C,SW24*%
X163696667Y-110886939D02*
X172190634Y-112384654D01*
X163018050Y-114735567D02*
X163696667Y-110886939D01*
X163010062Y-114780869D02*
X167975353Y-115703093D01*
X174091763Y-114704018D02*
X173406721Y-118589085D01*
X173405158Y-118597948D02*
X169850002Y-117971078D01*
X169849245Y-117946574D02*
G75*
G03*
X167950039Y-115702691I-2071545J172338D01*
G01*
X174093086Y-114633172D02*
G75*
G03*
X172190634Y-112384654I-2075485J173033D01*
G01*
%TO.C,D22*%
X180205000Y-105094000D02*
X180205000Y-103694000D01*
X180205000Y-104394000D02*
X179305000Y-105094000D01*
X179305000Y-105094000D02*
X179305000Y-103694000D01*
X179305000Y-103694000D02*
X180205000Y-104394000D01*
%TO.C,D3*%
X104082999Y-87187000D02*
X104082999Y-85787000D01*
X104082999Y-86487000D02*
X103182999Y-87187000D01*
X103182999Y-87187000D02*
X103182999Y-85787000D01*
X103182999Y-85787000D02*
X104082999Y-86487000D01*
%TO.C,D8*%
X123259999Y-122493000D02*
X123259999Y-121093000D01*
X123259999Y-121793000D02*
X122359999Y-122493000D01*
X122359999Y-122493000D02*
X122359999Y-121093000D01*
X122359999Y-121093000D02*
X123259999Y-121793000D01*
%TO.C,SW19*%
X136840902Y-88159110D02*
X145465902Y-88159110D01*
X136840902Y-92067110D02*
X136840902Y-88159110D01*
X136840902Y-92113110D02*
X141890902Y-92159110D01*
X147740902Y-90113110D02*
X147740902Y-94058110D01*
X147740902Y-94067110D02*
X144130902Y-94067110D01*
X144125901Y-94043109D02*
G75*
G03*
X141865902Y-92163111I-2069999J-190001D01*
G01*
X147729901Y-90043110D02*
G75*
G03*
X145465902Y-88159111I-2073999J-190000D01*
G01*
%TO.C,D29*%
X84778999Y-70677000D02*
X84778999Y-69277000D01*
X84778999Y-69977000D02*
X83878999Y-70677000D01*
X83878999Y-70677000D02*
X83878999Y-69277000D01*
X83878999Y-69277000D02*
X84778999Y-69977000D01*
%TO.C,D17*%
X161359999Y-102554000D02*
X161359999Y-101154000D01*
X161359999Y-101854000D02*
X160459999Y-102554000D01*
X160459999Y-102554000D02*
X160459999Y-101154000D01*
X160459999Y-101154000D02*
X161359999Y-101854000D01*
%TO.C,SW28*%
X182110087Y-126975482D02*
X186422587Y-119506013D01*
X185494514Y-128929482D02*
X182110087Y-126975482D01*
X185534352Y-128952482D02*
X188099189Y-124602054D01*
X189252301Y-118512805D02*
X192668771Y-120485305D01*
X192676565Y-120489805D02*
X190871565Y-123616157D01*
X190848279Y-123608488D02*
G75*
G03*
X188090154Y-124625704I-870454J-1887671D01*
G01*
X189186179Y-118487331D02*
G75*
G03*
X186422587Y-119506013I-872455J-1891137D01*
G01*
%TO.C,D10*%
X123005999Y-83885000D02*
X123005999Y-82485000D01*
X123005999Y-83185000D02*
X122105999Y-83885000D01*
X122105999Y-83885000D02*
X122105999Y-82485000D01*
X122105999Y-82485000D02*
X123005999Y-83185000D01*
%TO.C,D26*%
X200320001Y-91759000D02*
X200320001Y-90359000D01*
X200320001Y-91059000D02*
X199420001Y-91759000D01*
X199420001Y-91759000D02*
X199420001Y-90359000D01*
X199420001Y-90359000D02*
X200320001Y-91059000D01*
%TO.C,D12*%
X141183000Y-61149000D02*
X141183000Y-62549000D01*
X141183000Y-61849000D02*
X142083000Y-61149000D01*
X142083000Y-61149000D02*
X142083000Y-62549000D01*
X142083000Y-62549000D02*
X141183000Y-61849000D01*
%TO.C,D13*%
X142154001Y-81599000D02*
X142154001Y-80199000D01*
X142154001Y-80899000D02*
X141254001Y-81599000D01*
X141254001Y-81599000D02*
X141254001Y-80199000D01*
X141254001Y-80199000D02*
X142154001Y-80899000D01*
%TO.C,D4*%
X85082000Y-108015000D02*
X85082000Y-106615000D01*
X85082000Y-107315000D02*
X84182000Y-108015000D01*
X84182000Y-108015000D02*
X84182000Y-106615000D01*
X84182000Y-106615000D02*
X85082000Y-107315000D01*
%TO.C,SW8*%
X79624884Y-114296292D02*
X88249884Y-114296292D01*
X79624884Y-118204292D02*
X79624884Y-114296292D01*
X79624884Y-118250292D02*
X84674884Y-118296292D01*
X90524884Y-116250292D02*
X90524884Y-120195292D01*
X90524884Y-120204292D02*
X86914884Y-120204292D01*
X86909883Y-120180291D02*
G75*
G03*
X84649884Y-118300293I-2069999J-190001D01*
G01*
X90513883Y-116180292D02*
G75*
G03*
X88249884Y-114296293I-2073999J-190000D01*
G01*
%TO.C,SW13*%
X117729204Y-52317234D02*
X126354204Y-52317234D01*
X117729204Y-56225234D02*
X117729204Y-52317234D01*
X117729204Y-56271234D02*
X122779204Y-56317234D01*
X128629204Y-54271234D02*
X128629204Y-58216234D01*
X128629204Y-58225234D02*
X125019204Y-58225234D01*
X125014203Y-58201233D02*
G75*
G03*
X122754204Y-56321235I-2069999J-190001D01*
G01*
X128618203Y-54201234D02*
G75*
G03*
X126354204Y-52317235I-2073999J-190000D01*
G01*
%TO.C,SW30*%
X193977978Y-59488754D02*
X202602978Y-59488754D01*
X193977978Y-63396754D02*
X193977978Y-59488754D01*
X193977978Y-63442754D02*
X199027978Y-63488754D01*
X204877978Y-61442754D02*
X204877978Y-65387754D01*
X204877978Y-65396754D02*
X201267978Y-65396754D01*
X201262977Y-65372753D02*
G75*
G03*
X199002978Y-63492755I-2069999J-190001D01*
G01*
X204866977Y-61372754D02*
G75*
G03*
X202602978Y-59488755I-2073999J-190000D01*
G01*
%TO.C,SW5*%
X79644288Y-57139812D02*
X88269288Y-57139812D01*
X79644288Y-61047812D02*
X79644288Y-57139812D01*
X79644288Y-61093812D02*
X84694288Y-61139812D01*
X90544288Y-59093812D02*
X90544288Y-63038812D01*
X90544288Y-63047812D02*
X86934288Y-63047812D01*
X86929287Y-63023811D02*
G75*
G03*
X84669288Y-61143813I-2069999J-190001D01*
G01*
X90533287Y-59023812D02*
G75*
G03*
X88269288Y-57139813I-2073999J-190000D01*
G01*
%TO.C,SW16*%
X117769472Y-109592790D02*
X126394472Y-109592790D01*
X117769472Y-113500790D02*
X117769472Y-109592790D01*
X117769472Y-113546790D02*
X122819472Y-113592790D01*
X128669472Y-111546790D02*
X128669472Y-115491790D01*
X128669472Y-115500790D02*
X125059472Y-115500790D01*
X125054471Y-115476789D02*
G75*
G03*
X122794472Y-113596791I-2069999J-190001D01*
G01*
X128658471Y-111476790D02*
G75*
G03*
X126394472Y-109592791I-2073999J-190000D01*
G01*
%TO.C,SW10*%
X98736582Y-73929528D02*
X107361582Y-73929528D01*
X98736582Y-77837528D02*
X98736582Y-73929528D01*
X98736582Y-77883528D02*
X103786582Y-77929528D01*
X109636582Y-75883528D02*
X109636582Y-79828528D01*
X109636582Y-79837528D02*
X106026582Y-79837528D01*
X106021581Y-79813527D02*
G75*
G03*
X103761582Y-77933529I-2069999J-190001D01*
G01*
X109625581Y-75813528D02*
G75*
G03*
X107361582Y-73929529I-2073999J-190000D01*
G01*
%TO.C,SW1*%
X136821632Y-69047412D02*
X145446632Y-69047412D01*
X136821632Y-72955412D02*
X136821632Y-69047412D01*
X136821632Y-73001412D02*
X141871632Y-73047412D01*
X147721632Y-71001412D02*
X147721632Y-74946412D01*
X147721632Y-74955412D02*
X144111632Y-74955412D01*
X144106631Y-74931411D02*
G75*
G03*
X141846632Y-73051413I-2069999J-190001D01*
G01*
X147710631Y-70931412D02*
G75*
G03*
X145446632Y-69047413I-2073999J-190000D01*
G01*
%TO.C,SW29*%
X203478135Y-117123915D02*
X199165635Y-124593384D01*
X200093708Y-115169915D02*
X203478135Y-117123915D01*
X200053870Y-115146915D02*
X197489033Y-119497343D01*
X196335921Y-125586592D02*
X192919451Y-123614092D01*
X192911657Y-123609592D02*
X194716657Y-120483240D01*
X194739943Y-120490909D02*
G75*
G03*
X197498068Y-119473693I870454J1887671D01*
G01*
X196402043Y-125612066D02*
G75*
G03*
X199165635Y-124593384I872455J1891137D01*
G01*
%TO.C,SW22*%
X155833524Y-71488470D02*
X164458524Y-71488470D01*
X155833524Y-75396470D02*
X155833524Y-71488470D01*
X155833524Y-75442470D02*
X160883524Y-75488470D01*
X166733524Y-73442470D02*
X166733524Y-77387470D01*
X166733524Y-77396470D02*
X163123524Y-77396470D01*
X163118523Y-77372469D02*
G75*
G03*
X160858524Y-75492471I-2069999J-190001D01*
G01*
X166722523Y-73372470D02*
G75*
G03*
X164458524Y-71488471I-2073999J-190000D01*
G01*
%TO.C,D6*%
X85004001Y-127065000D02*
X85004001Y-125665000D01*
X85004001Y-126365000D02*
X84104001Y-127065000D01*
X84104001Y-127065000D02*
X84104001Y-125665000D01*
X84104001Y-125665000D02*
X85004001Y-126365000D01*
%TO.C,D20*%
X180586000Y-67629000D02*
X180586000Y-66229000D01*
X180586000Y-66929000D02*
X179686000Y-67629000D01*
X179686000Y-67629000D02*
X179686000Y-66229000D01*
X179686000Y-66229000D02*
X180586000Y-66929000D01*
%TO.C,D11*%
X122928000Y-65216000D02*
X122928000Y-63816000D01*
X122928000Y-64516000D02*
X122028000Y-65216000D01*
X122028000Y-65216000D02*
X122028000Y-63816000D01*
X122028000Y-63816000D02*
X122928000Y-64516000D01*
%TO.C,D16*%
X167173001Y-124271000D02*
X167173001Y-122871000D01*
X167173001Y-123571000D02*
X166273001Y-124271000D01*
X166273001Y-124271000D02*
X166273001Y-122871000D01*
X166273001Y-122871000D02*
X167173001Y-123571000D01*
%TO.C,D5*%
X104132000Y-105221000D02*
X104132000Y-103821000D01*
X104132000Y-104521000D02*
X103232000Y-105221000D01*
X103232000Y-105221000D02*
X103232000Y-103821000D01*
X103232000Y-103821000D02*
X104132000Y-104521000D01*
%TO.C,D1*%
X103955999Y-68137000D02*
X103955999Y-66737000D01*
X103955999Y-67437000D02*
X103055999Y-68137000D01*
X103055999Y-68137000D02*
X103055999Y-66737000D01*
X103055999Y-66737000D02*
X103955999Y-67437000D01*
%TD*%
M02*
