%TF.GenerationSoftware,KiCad,Pcbnew,7.0.1*%
%TF.CreationDate,2023-04-29T17:31:46+07:00*%
%TF.ProjectId,ErgoTravel,4572676f-5472-4617-9665-6c2e6b696361,rev?*%
%TF.SameCoordinates,Original*%
%TF.FileFunction,Legend,Bot*%
%TF.FilePolarity,Positive*%
%FSLAX46Y46*%
G04 Gerber Fmt 4.6, Leading zero omitted, Abs format (unit mm)*
G04 Created by KiCad (PCBNEW 7.0.1) date 2023-04-29 17:31:46*
%MOMM*%
%LPD*%
G01*
G04 APERTURE LIST*
%ADD10C,0.300000*%
%ADD11C,0.150000*%
%ADD12C,0.120000*%
G04 APERTURE END LIST*
D10*
X152821571Y-47839285D02*
X151821571Y-48196428D01*
X151821571Y-48196428D02*
X152821571Y-48553571D01*
X151893000Y-49767857D02*
X151821571Y-49624999D01*
X151821571Y-49624999D02*
X151821571Y-49339285D01*
X151821571Y-49339285D02*
X151893000Y-49196428D01*
X151893000Y-49196428D02*
X151964428Y-49124999D01*
X151964428Y-49124999D02*
X152107285Y-49053571D01*
X152107285Y-49053571D02*
X152535857Y-49053571D01*
X152535857Y-49053571D02*
X152678714Y-49124999D01*
X152678714Y-49124999D02*
X152750142Y-49196428D01*
X152750142Y-49196428D02*
X152821571Y-49339285D01*
X152821571Y-49339285D02*
X152821571Y-49624999D01*
X152821571Y-49624999D02*
X152750142Y-49767857D01*
X151893000Y-51053571D02*
X151821571Y-50910713D01*
X151821571Y-50910713D02*
X151821571Y-50624999D01*
X151821571Y-50624999D02*
X151893000Y-50482142D01*
X151893000Y-50482142D02*
X151964428Y-50410713D01*
X151964428Y-50410713D02*
X152107285Y-50339285D01*
X152107285Y-50339285D02*
X152535857Y-50339285D01*
X152535857Y-50339285D02*
X152678714Y-50410713D01*
X152678714Y-50410713D02*
X152750142Y-50482142D01*
X152750142Y-50482142D02*
X152821571Y-50624999D01*
X152821571Y-50624999D02*
X152821571Y-50910713D01*
X152821571Y-50910713D02*
X152750142Y-51053571D01*
X181006857Y-48306714D02*
X180792571Y-48378142D01*
X180792571Y-48378142D02*
X180721142Y-48449571D01*
X180721142Y-48449571D02*
X180649714Y-48592428D01*
X180649714Y-48592428D02*
X180649714Y-48806714D01*
X180649714Y-48806714D02*
X180721142Y-48949571D01*
X180721142Y-48949571D02*
X180792571Y-49021000D01*
X180792571Y-49021000D02*
X180935428Y-49092428D01*
X180935428Y-49092428D02*
X181506857Y-49092428D01*
X181506857Y-49092428D02*
X181506857Y-47592428D01*
X181506857Y-47592428D02*
X181006857Y-47592428D01*
X181006857Y-47592428D02*
X180864000Y-47663857D01*
X180864000Y-47663857D02*
X180792571Y-47735285D01*
X180792571Y-47735285D02*
X180721142Y-47878142D01*
X180721142Y-47878142D02*
X180721142Y-48021000D01*
X180721142Y-48021000D02*
X180792571Y-48163857D01*
X180792571Y-48163857D02*
X180864000Y-48235285D01*
X180864000Y-48235285D02*
X181006857Y-48306714D01*
X181006857Y-48306714D02*
X181506857Y-48306714D01*
X180078285Y-48663857D02*
X179364000Y-48663857D01*
X180221142Y-49092428D02*
X179721142Y-47592428D01*
X179721142Y-47592428D02*
X179221142Y-49092428D01*
X178935428Y-47592428D02*
X178078286Y-47592428D01*
X178506857Y-49092428D02*
X178506857Y-47592428D01*
X166806714Y-50870428D02*
X167306714Y-50156142D01*
X167663857Y-50870428D02*
X167663857Y-49370428D01*
X167663857Y-49370428D02*
X167092428Y-49370428D01*
X167092428Y-49370428D02*
X166949571Y-49441857D01*
X166949571Y-49441857D02*
X166878142Y-49513285D01*
X166878142Y-49513285D02*
X166806714Y-49656142D01*
X166806714Y-49656142D02*
X166806714Y-49870428D01*
X166806714Y-49870428D02*
X166878142Y-50013285D01*
X166878142Y-50013285D02*
X166949571Y-50084714D01*
X166949571Y-50084714D02*
X167092428Y-50156142D01*
X167092428Y-50156142D02*
X167663857Y-50156142D01*
X166235285Y-50441857D02*
X165521000Y-50441857D01*
X166378142Y-50870428D02*
X165878142Y-49370428D01*
X165878142Y-49370428D02*
X165378142Y-50870428D01*
X165021000Y-49370428D02*
X164663857Y-50870428D01*
X164663857Y-50870428D02*
X164378143Y-49799000D01*
X164378143Y-49799000D02*
X164092428Y-50870428D01*
X164092428Y-50870428D02*
X163735286Y-49370428D01*
D11*
%TO.C,K13*%
X142874457Y-49006871D02*
X142874457Y-48006871D01*
X142303029Y-49006871D02*
X142731600Y-48435442D01*
X142303029Y-48006871D02*
X142874457Y-48578299D01*
X141350648Y-49006871D02*
X141922076Y-49006871D01*
X141636362Y-49006871D02*
X141636362Y-48006871D01*
X141636362Y-48006871D02*
X141731600Y-48149728D01*
X141731600Y-48149728D02*
X141826838Y-48244966D01*
X141826838Y-48244966D02*
X141922076Y-48292585D01*
X141017314Y-48006871D02*
X140398267Y-48006871D01*
X140398267Y-48006871D02*
X140731600Y-48387823D01*
X140731600Y-48387823D02*
X140588743Y-48387823D01*
X140588743Y-48387823D02*
X140493505Y-48435442D01*
X140493505Y-48435442D02*
X140445886Y-48483061D01*
X140445886Y-48483061D02*
X140398267Y-48578299D01*
X140398267Y-48578299D02*
X140398267Y-48816394D01*
X140398267Y-48816394D02*
X140445886Y-48911632D01*
X140445886Y-48911632D02*
X140493505Y-48959252D01*
X140493505Y-48959252D02*
X140588743Y-49006871D01*
X140588743Y-49006871D02*
X140874457Y-49006871D01*
X140874457Y-49006871D02*
X140969695Y-48959252D01*
X140969695Y-48959252D02*
X141017314Y-48911632D01*
%TO.C,BATTCONN2*%
X187687618Y-48341809D02*
X187544761Y-48389428D01*
X187544761Y-48389428D02*
X187497142Y-48437047D01*
X187497142Y-48437047D02*
X187449523Y-48532285D01*
X187449523Y-48532285D02*
X187449523Y-48675142D01*
X187449523Y-48675142D02*
X187497142Y-48770380D01*
X187497142Y-48770380D02*
X187544761Y-48818000D01*
X187544761Y-48818000D02*
X187639999Y-48865619D01*
X187639999Y-48865619D02*
X188020951Y-48865619D01*
X188020951Y-48865619D02*
X188020951Y-47865619D01*
X188020951Y-47865619D02*
X187687618Y-47865619D01*
X187687618Y-47865619D02*
X187592380Y-47913238D01*
X187592380Y-47913238D02*
X187544761Y-47960857D01*
X187544761Y-47960857D02*
X187497142Y-48056095D01*
X187497142Y-48056095D02*
X187497142Y-48151333D01*
X187497142Y-48151333D02*
X187544761Y-48246571D01*
X187544761Y-48246571D02*
X187592380Y-48294190D01*
X187592380Y-48294190D02*
X187687618Y-48341809D01*
X187687618Y-48341809D02*
X188020951Y-48341809D01*
X187020951Y-48484666D02*
X186259047Y-48484666D01*
X186639999Y-48865619D02*
X186639999Y-48103714D01*
%TO.C,U2*%
X139907790Y-54634809D02*
X139764933Y-54682428D01*
X139764933Y-54682428D02*
X139717314Y-54730047D01*
X139717314Y-54730047D02*
X139669695Y-54825285D01*
X139669695Y-54825285D02*
X139669695Y-54968142D01*
X139669695Y-54968142D02*
X139717314Y-55063380D01*
X139717314Y-55063380D02*
X139764933Y-55111000D01*
X139764933Y-55111000D02*
X139860171Y-55158619D01*
X139860171Y-55158619D02*
X140241123Y-55158619D01*
X140241123Y-55158619D02*
X140241123Y-54158619D01*
X140241123Y-54158619D02*
X139907790Y-54158619D01*
X139907790Y-54158619D02*
X139812552Y-54206238D01*
X139812552Y-54206238D02*
X139764933Y-54253857D01*
X139764933Y-54253857D02*
X139717314Y-54349095D01*
X139717314Y-54349095D02*
X139717314Y-54444333D01*
X139717314Y-54444333D02*
X139764933Y-54539571D01*
X139764933Y-54539571D02*
X139812552Y-54587190D01*
X139812552Y-54587190D02*
X139907790Y-54634809D01*
X139907790Y-54634809D02*
X140241123Y-54634809D01*
X139241123Y-54777666D02*
X138479219Y-54777666D01*
X139907790Y-56534809D02*
X139764933Y-56582428D01*
X139764933Y-56582428D02*
X139717314Y-56630047D01*
X139717314Y-56630047D02*
X139669695Y-56725285D01*
X139669695Y-56725285D02*
X139669695Y-56868142D01*
X139669695Y-56868142D02*
X139717314Y-56963380D01*
X139717314Y-56963380D02*
X139764933Y-57011000D01*
X139764933Y-57011000D02*
X139860171Y-57058619D01*
X139860171Y-57058619D02*
X140241123Y-57058619D01*
X140241123Y-57058619D02*
X140241123Y-56058619D01*
X140241123Y-56058619D02*
X139907790Y-56058619D01*
X139907790Y-56058619D02*
X139812552Y-56106238D01*
X139812552Y-56106238D02*
X139764933Y-56153857D01*
X139764933Y-56153857D02*
X139717314Y-56249095D01*
X139717314Y-56249095D02*
X139717314Y-56344333D01*
X139717314Y-56344333D02*
X139764933Y-56439571D01*
X139764933Y-56439571D02*
X139812552Y-56487190D01*
X139812552Y-56487190D02*
X139907790Y-56534809D01*
X139907790Y-56534809D02*
X140241123Y-56534809D01*
X139241123Y-56677666D02*
X138479219Y-56677666D01*
X138860171Y-57058619D02*
X138860171Y-56296714D01*
%TO.C,BATTCONN1*%
X157233618Y-50198809D02*
X157090761Y-50246428D01*
X157090761Y-50246428D02*
X157043142Y-50294047D01*
X157043142Y-50294047D02*
X156995523Y-50389285D01*
X156995523Y-50389285D02*
X156995523Y-50532142D01*
X156995523Y-50532142D02*
X157043142Y-50627380D01*
X157043142Y-50627380D02*
X157090761Y-50675000D01*
X157090761Y-50675000D02*
X157185999Y-50722619D01*
X157185999Y-50722619D02*
X157566951Y-50722619D01*
X157566951Y-50722619D02*
X157566951Y-49722619D01*
X157566951Y-49722619D02*
X157233618Y-49722619D01*
X157233618Y-49722619D02*
X157138380Y-49770238D01*
X157138380Y-49770238D02*
X157090761Y-49817857D01*
X157090761Y-49817857D02*
X157043142Y-49913095D01*
X157043142Y-49913095D02*
X157043142Y-50008333D01*
X157043142Y-50008333D02*
X157090761Y-50103571D01*
X157090761Y-50103571D02*
X157138380Y-50151190D01*
X157138380Y-50151190D02*
X157233618Y-50198809D01*
X157233618Y-50198809D02*
X157566951Y-50198809D01*
X156566951Y-50341666D02*
X155805047Y-50341666D01*
X156185999Y-50722619D02*
X156185999Y-49960714D01*
%TO.C,G\u002A\u002A\u002A*%
G36*
X151865152Y-113432498D02*
G01*
X151944693Y-113433967D01*
X152257994Y-113465028D01*
X152574808Y-113535047D01*
X152890377Y-113642197D01*
X153199941Y-113784651D01*
X153498742Y-113960583D01*
X153782021Y-114168166D01*
X153911610Y-114280402D01*
X154126602Y-114496879D01*
X154326614Y-114735759D01*
X154502924Y-114986257D01*
X154646811Y-115237586D01*
X154697514Y-115344500D01*
X154813152Y-115648381D01*
X154899055Y-115972819D01*
X154953712Y-116309454D01*
X154975608Y-116649925D01*
X154963231Y-116985870D01*
X154961013Y-117009413D01*
X154940081Y-117184036D01*
X154911708Y-117362993D01*
X154878144Y-117534626D01*
X154841637Y-117687274D01*
X154804435Y-117809278D01*
X154789843Y-117854243D01*
X154784718Y-117892683D01*
X154797746Y-117908041D01*
X154814195Y-117912315D01*
X154866764Y-117924771D01*
X154943821Y-117942406D01*
X155035250Y-117962885D01*
X155177219Y-117997123D01*
X155569463Y-118120644D01*
X155953218Y-118283916D01*
X156325498Y-118485209D01*
X156683316Y-118722795D01*
X157023687Y-118994944D01*
X157343623Y-119299925D01*
X157439968Y-119402643D01*
X157708455Y-119722561D01*
X157938787Y-120054064D01*
X158133899Y-120402202D01*
X158296727Y-120772025D01*
X158430209Y-121168584D01*
X158475934Y-121341864D01*
X158530210Y-121601246D01*
X158572760Y-121872953D01*
X158602540Y-122146762D01*
X158618504Y-122412449D01*
X158619610Y-122659791D01*
X158604814Y-122878562D01*
X158581787Y-123073941D01*
X158560887Y-123236762D01*
X158540791Y-123372993D01*
X158519967Y-123490451D01*
X158496879Y-123596953D01*
X158469994Y-123700315D01*
X158437778Y-123808355D01*
X158398697Y-123928890D01*
X158365294Y-124025487D01*
X158202096Y-124419529D01*
X158000373Y-124801890D01*
X157762880Y-125167757D01*
X157492374Y-125512316D01*
X157474681Y-125532761D01*
X157170308Y-125853450D01*
X156847114Y-126136919D01*
X156504126Y-126383671D01*
X156140371Y-126594211D01*
X155754877Y-126769042D01*
X155346670Y-126908670D01*
X154914778Y-127013596D01*
X154458228Y-127084327D01*
X154387191Y-127089746D01*
X154281903Y-127093907D01*
X154154088Y-127096419D01*
X154013798Y-127097087D01*
X153871084Y-127095717D01*
X153594126Y-127085002D01*
X153327914Y-127060073D01*
X153076081Y-127018977D01*
X152825123Y-126959484D01*
X152561535Y-126879362D01*
X152235143Y-126755388D01*
X151863178Y-126576071D01*
X151503275Y-126362306D01*
X151160186Y-126117826D01*
X150838667Y-125846367D01*
X150543470Y-125551661D01*
X150279349Y-125237444D01*
X150051058Y-124907448D01*
X150011794Y-124842662D01*
X149859044Y-124560342D01*
X149723188Y-124260184D01*
X149608403Y-123953088D01*
X149518864Y-123649950D01*
X149458748Y-123361669D01*
X149446652Y-123285056D01*
X149430660Y-123183090D01*
X149415236Y-123084167D01*
X149410429Y-123041710D01*
X149404912Y-122950658D01*
X149401197Y-122832024D01*
X149399193Y-122692799D01*
X149398808Y-122539973D01*
X149399950Y-122380537D01*
X149402526Y-122221481D01*
X149406446Y-122069797D01*
X149411618Y-121932475D01*
X149417950Y-121816504D01*
X149425349Y-121728877D01*
X149433724Y-121676584D01*
X149438421Y-121658833D01*
X149455943Y-121587874D01*
X149477407Y-121496363D01*
X149499202Y-121399577D01*
X149505827Y-121370371D01*
X149568167Y-121144695D01*
X149652338Y-120901483D01*
X149753205Y-120652674D01*
X149865633Y-120410206D01*
X149984485Y-120186019D01*
X150104627Y-119992051D01*
X150131756Y-119952771D01*
X150249317Y-119791628D01*
X150383581Y-119619043D01*
X150523473Y-119448962D01*
X150657917Y-119295334D01*
X150699515Y-119248738D01*
X150770240Y-119167790D01*
X150859452Y-119064465D01*
X150963314Y-118943308D01*
X151077988Y-118808859D01*
X151199637Y-118665661D01*
X151324422Y-118518256D01*
X151448508Y-118371186D01*
X151568055Y-118228994D01*
X151679226Y-118096221D01*
X151778184Y-117977409D01*
X151861091Y-117877102D01*
X151924110Y-117799840D01*
X151963402Y-117750167D01*
X151971261Y-117739737D01*
X152085390Y-117562916D01*
X152178932Y-117370037D01*
X152243283Y-117178667D01*
X152246095Y-117166869D01*
X152261554Y-117060825D01*
X152268594Y-116927972D01*
X152267591Y-116781132D01*
X152258920Y-116633128D01*
X152242956Y-116496782D01*
X152220073Y-116384917D01*
X152166000Y-116224615D01*
X152059201Y-116014331D01*
X151919965Y-115830286D01*
X151750106Y-115674370D01*
X151551443Y-115548474D01*
X151325792Y-115454489D01*
X151293651Y-115443130D01*
X151235076Y-115413535D01*
X151214667Y-115385455D01*
X151214776Y-115383045D01*
X151220887Y-115371669D01*
X151240508Y-115364021D01*
X151279395Y-115359749D01*
X151343304Y-115358498D01*
X151437990Y-115359914D01*
X151569209Y-115363643D01*
X151703672Y-115369564D01*
X151875711Y-115384713D01*
X152021604Y-115409453D01*
X152150811Y-115446074D01*
X152272791Y-115496868D01*
X152397006Y-115564126D01*
X152505924Y-115637869D01*
X152666021Y-115783247D01*
X152803017Y-115954844D01*
X152910504Y-116144132D01*
X152982073Y-116342584D01*
X152983169Y-116346932D01*
X153001946Y-116456359D01*
X153012777Y-116591476D01*
X153015371Y-116737063D01*
X153009434Y-116877903D01*
X152994675Y-116998778D01*
X152991903Y-117013430D01*
X152946572Y-117185712D01*
X152876229Y-117376812D01*
X152785434Y-117576612D01*
X152678745Y-117774992D01*
X152560722Y-117961834D01*
X152503613Y-118046132D01*
X152424524Y-118165375D01*
X152343002Y-118290438D01*
X152269780Y-118404975D01*
X152267327Y-118408860D01*
X152201679Y-118510423D01*
X152135239Y-118609258D01*
X152075633Y-118694235D01*
X152030487Y-118754225D01*
X151992210Y-118802154D01*
X151907263Y-118910854D01*
X151807717Y-119040421D01*
X151700109Y-119182177D01*
X151590981Y-119327440D01*
X151486871Y-119467531D01*
X151394320Y-119593769D01*
X151319866Y-119697474D01*
X151261620Y-119778646D01*
X151178271Y-119891618D01*
X151095978Y-120000172D01*
X151026180Y-120089057D01*
X150998105Y-120124181D01*
X150768129Y-120444897D01*
X150576109Y-120778720D01*
X150420241Y-121129650D01*
X150298721Y-121501688D01*
X150209744Y-121898834D01*
X150199362Y-121971420D01*
X150187556Y-122113918D01*
X150181251Y-122281315D01*
X150180301Y-122463175D01*
X150184558Y-122649060D01*
X150193874Y-122828534D01*
X150208102Y-122991160D01*
X150227095Y-123126500D01*
X150297918Y-123451201D01*
X150416612Y-123833020D01*
X150569807Y-124190860D01*
X150758260Y-124526037D01*
X150982730Y-124839865D01*
X151243974Y-125133659D01*
X151542750Y-125408734D01*
X151762229Y-125580012D01*
X152067952Y-125782381D01*
X152385865Y-125954741D01*
X152708834Y-126093321D01*
X153029723Y-126194351D01*
X153040356Y-126197041D01*
X153220761Y-126236863D01*
X153418315Y-126271267D01*
X153618677Y-126298300D01*
X153807507Y-126316010D01*
X153970465Y-126322443D01*
X153975105Y-126322442D01*
X154204398Y-126312696D01*
X154456839Y-126285409D01*
X154718491Y-126242839D01*
X154975415Y-126187248D01*
X155213674Y-126120894D01*
X155247633Y-126109946D01*
X155597622Y-125973112D01*
X155932928Y-125798285D01*
X156250797Y-125587931D01*
X156548474Y-125344517D01*
X156823206Y-125070509D01*
X157072237Y-124768373D01*
X157292813Y-124440576D01*
X157482181Y-124089584D01*
X157561773Y-123912216D01*
X157679452Y-123589313D01*
X157762836Y-123261313D01*
X157813019Y-122922002D01*
X157831099Y-122565164D01*
X157818171Y-122184584D01*
X157811221Y-122093198D01*
X157801421Y-121981660D01*
X157791791Y-121889327D01*
X157783154Y-121823879D01*
X157776328Y-121793000D01*
X157771706Y-121781756D01*
X157757908Y-121731239D01*
X157745509Y-121666000D01*
X157715982Y-121524819D01*
X157665007Y-121350045D01*
X157597667Y-121159140D01*
X157517881Y-120961767D01*
X157429567Y-120767584D01*
X157336646Y-120586254D01*
X157243036Y-120427437D01*
X157186708Y-120343765D01*
X157045196Y-120157037D01*
X156880888Y-119965072D01*
X156703423Y-119778267D01*
X156522442Y-119607018D01*
X156347584Y-119461722D01*
X156337647Y-119454148D01*
X155995415Y-119218466D01*
X155642679Y-119023612D01*
X155279690Y-118869691D01*
X154906697Y-118756810D01*
X154523951Y-118685075D01*
X154393651Y-118667885D01*
X154267181Y-118838734D01*
X154241023Y-118873451D01*
X154160212Y-118976023D01*
X154071232Y-119083949D01*
X153989056Y-119178917D01*
X153837401Y-119348250D01*
X154118826Y-119360226D01*
X154296076Y-119370405D01*
X154455995Y-119386950D01*
X154604557Y-119412155D01*
X154757561Y-119448728D01*
X154930807Y-119499377D01*
X154996600Y-119520729D01*
X155312214Y-119649013D01*
X155614831Y-119814291D01*
X155899973Y-120012766D01*
X156163160Y-120240645D01*
X156399913Y-120494131D01*
X156605753Y-120769432D01*
X156776200Y-121062750D01*
X156791142Y-121092923D01*
X156925802Y-121415035D01*
X157024262Y-121752369D01*
X157086111Y-122099511D01*
X157110938Y-122451053D01*
X157098336Y-122801581D01*
X157047892Y-123145684D01*
X156959197Y-123477953D01*
X156919852Y-123584502D01*
X156841659Y-123761579D01*
X156746600Y-123947653D01*
X156641653Y-124129348D01*
X156533797Y-124293288D01*
X156522263Y-124309358D01*
X156389498Y-124476906D01*
X156233603Y-124648024D01*
X156065120Y-124812367D01*
X155894593Y-124959592D01*
X155732568Y-125079353D01*
X155662551Y-125124410D01*
X155535787Y-125199903D01*
X155406753Y-125270269D01*
X155284720Y-125330771D01*
X155178962Y-125376671D01*
X155098750Y-125403230D01*
X155048222Y-125418922D01*
X155011033Y-125437317D01*
X154996037Y-125444645D01*
X154945592Y-125458205D01*
X154878742Y-125469097D01*
X154838390Y-125474999D01*
X154789676Y-125486370D01*
X154770667Y-125497346D01*
X154763630Y-125505573D01*
X154727862Y-125518203D01*
X154676541Y-125527276D01*
X154626392Y-125530222D01*
X154594141Y-125524471D01*
X154588359Y-125513337D01*
X154609482Y-125497258D01*
X154654368Y-125483911D01*
X154712459Y-125477488D01*
X154752374Y-125470672D01*
X154770667Y-125454834D01*
X154773100Y-125446277D01*
X154799002Y-125433667D01*
X154814311Y-125430885D01*
X154867672Y-125411022D01*
X154945711Y-125375416D01*
X155040751Y-125328067D01*
X155145117Y-125272971D01*
X155251135Y-125214125D01*
X155351126Y-125155528D01*
X155437417Y-125101178D01*
X155447570Y-125094402D01*
X155586877Y-124989555D01*
X155724025Y-124862609D01*
X155864782Y-124707754D01*
X156014913Y-124519178D01*
X156157586Y-124311320D01*
X156318442Y-124013239D01*
X156442609Y-123697122D01*
X156529609Y-123365536D01*
X156578963Y-123021047D01*
X156590194Y-122666220D01*
X156562822Y-122303622D01*
X156496371Y-121935819D01*
X156406664Y-121635541D01*
X156275069Y-121332048D01*
X156107269Y-121040754D01*
X155906232Y-120765292D01*
X155674924Y-120509295D01*
X155416314Y-120276396D01*
X155133368Y-120070228D01*
X154829055Y-119894426D01*
X154770261Y-119865440D01*
X154449772Y-119735050D01*
X154109439Y-119640704D01*
X153752813Y-119583429D01*
X153634543Y-119570938D01*
X152969647Y-120304670D01*
X152856397Y-120429874D01*
X152722346Y-120578675D01*
X152596855Y-120718615D01*
X152483247Y-120845953D01*
X152384847Y-120956950D01*
X152304979Y-121047868D01*
X152246968Y-121114967D01*
X152214138Y-121154507D01*
X152197634Y-121176328D01*
X152114716Y-121303980D01*
X152034190Y-121454482D01*
X151963882Y-121612137D01*
X151911616Y-121761250D01*
X151897399Y-121818441D01*
X151875328Y-121951561D01*
X151860381Y-122104920D01*
X151853374Y-122264317D01*
X151855128Y-122415550D01*
X151866461Y-122544417D01*
X151885378Y-122647794D01*
X151957595Y-122885105D01*
X152067210Y-123117122D01*
X152210906Y-123337482D01*
X152385366Y-123539823D01*
X152481447Y-123631118D01*
X152696666Y-123795993D01*
X152928092Y-123921941D01*
X153176928Y-124009552D01*
X153444376Y-124059416D01*
X153631944Y-124071981D01*
X153903875Y-124057456D01*
X154162525Y-124002750D01*
X154407661Y-123907939D01*
X154639050Y-123773100D01*
X154856463Y-123598308D01*
X154869343Y-123586495D01*
X154927929Y-123535599D01*
X154974181Y-123499837D01*
X154999028Y-123486334D01*
X155005444Y-123489145D01*
X155039656Y-123514125D01*
X155096832Y-123560923D01*
X155171488Y-123624616D01*
X155258139Y-123700279D01*
X155351303Y-123782989D01*
X155445493Y-123867822D01*
X155535227Y-123949855D01*
X155615021Y-124024164D01*
X155679390Y-124085825D01*
X155722849Y-124129915D01*
X155739916Y-124151509D01*
X155739747Y-124156118D01*
X155720132Y-124188892D01*
X155674845Y-124240725D01*
X155609945Y-124305939D01*
X155531488Y-124378854D01*
X155445533Y-124453791D01*
X155358136Y-124525073D01*
X155275357Y-124587019D01*
X155073450Y-124715503D01*
X154787307Y-124858566D01*
X154485005Y-124969896D01*
X154177173Y-125045058D01*
X154041638Y-125064135D01*
X153849841Y-125078378D01*
X153644351Y-125082374D01*
X153438893Y-125076259D01*
X153247192Y-125060169D01*
X153082971Y-125034239D01*
X152756857Y-124945953D01*
X152443170Y-124819270D01*
X152149227Y-124655378D01*
X151874043Y-124453727D01*
X151616631Y-124213765D01*
X151505983Y-124093837D01*
X151364628Y-123920576D01*
X151243309Y-123742178D01*
X151131429Y-123544015D01*
X151070582Y-123421835D01*
X150976421Y-123200361D01*
X150907962Y-122983153D01*
X150862682Y-122759306D01*
X150838058Y-122517918D01*
X150831566Y-122248084D01*
X150833585Y-122095887D01*
X150839151Y-121951314D01*
X150849433Y-121828139D01*
X150865732Y-121715213D01*
X150889346Y-121601384D01*
X150921574Y-121475500D01*
X150942821Y-121403475D01*
X151020997Y-121191369D01*
X151121400Y-120973569D01*
X151236378Y-120765707D01*
X151358279Y-120583416D01*
X151370181Y-120568182D01*
X151416895Y-120512315D01*
X151487568Y-120430774D01*
X151578808Y-120327291D01*
X151687226Y-120205600D01*
X151809431Y-120069433D01*
X151942033Y-119922525D01*
X152081642Y-119768607D01*
X152224866Y-119611413D01*
X152368317Y-119454676D01*
X152508602Y-119302129D01*
X152642332Y-119157505D01*
X152766116Y-119024537D01*
X152876565Y-118906957D01*
X152970287Y-118808500D01*
X152977998Y-118800400D01*
X153056511Y-118711566D01*
X153136772Y-118611572D01*
X153202540Y-118520552D01*
X153282456Y-118404359D01*
X153396085Y-118254318D01*
X153525823Y-118101102D01*
X153620223Y-117978458D01*
X153730355Y-117784976D01*
X153820170Y-117564734D01*
X153888573Y-117324248D01*
X153934469Y-117070036D01*
X153956763Y-116808613D01*
X153954360Y-116546497D01*
X153926166Y-116290204D01*
X153871084Y-116046250D01*
X153868643Y-116037958D01*
X153771843Y-115773849D01*
X153642827Y-115529977D01*
X153478292Y-115301000D01*
X153274936Y-115081572D01*
X153225039Y-115034580D01*
X152980066Y-114837112D01*
X152717709Y-114678213D01*
X152437643Y-114557736D01*
X152139538Y-114475536D01*
X151823068Y-114431465D01*
X151627417Y-114416417D01*
X151621735Y-113924292D01*
X151616054Y-113432167D01*
X151865152Y-113432498D01*
G37*
G36*
X159351848Y-126750235D02*
G01*
X159350893Y-126819198D01*
X159342930Y-126878558D01*
X159323928Y-126926857D01*
X159289750Y-126980138D01*
X159283153Y-126989396D01*
X159216485Y-127069932D01*
X159146554Y-127123871D01*
X159060392Y-127158821D01*
X158945032Y-127182389D01*
X158866687Y-127194253D01*
X158795349Y-127203743D01*
X158741502Y-127207110D01*
X158691547Y-127204253D01*
X158631885Y-127195074D01*
X158548917Y-127179470D01*
X158547475Y-127179195D01*
X158388189Y-127141058D01*
X158232214Y-127089643D01*
X158089275Y-127029068D01*
X157969098Y-126963448D01*
X157881408Y-126896902D01*
X157836258Y-126841279D01*
X157806607Y-126762509D01*
X157798192Y-126657433D01*
X157798326Y-126647493D01*
X157804821Y-126570858D01*
X157817413Y-126513283D01*
X158140884Y-126513283D01*
X158145285Y-126570231D01*
X158178839Y-126616912D01*
X158243482Y-126660911D01*
X158341151Y-126709812D01*
X158376705Y-126726207D01*
X158456182Y-126758809D01*
X158528629Y-126779426D01*
X158610500Y-126792018D01*
X158718250Y-126800543D01*
X158797687Y-126804237D01*
X158902692Y-126801521D01*
X158969384Y-126784586D01*
X158999673Y-126750235D01*
X158995468Y-126695267D01*
X158958678Y-126616485D01*
X158891211Y-126510689D01*
X158825053Y-126424489D01*
X158745944Y-126338471D01*
X158662319Y-126260464D01*
X158581673Y-126196919D01*
X158511503Y-126154286D01*
X158459307Y-126139017D01*
X158413475Y-126135894D01*
X158367361Y-126124550D01*
X158366045Y-126123992D01*
X158345393Y-126126432D01*
X158319327Y-126152220D01*
X158283876Y-126206450D01*
X158235069Y-126294212D01*
X158211800Y-126338244D01*
X158163701Y-126438482D01*
X158140884Y-126513283D01*
X157817413Y-126513283D01*
X157822782Y-126488734D01*
X157854750Y-126393395D01*
X157903264Y-126277114D01*
X157970864Y-126132167D01*
X158015723Y-126038428D01*
X158052278Y-125959263D01*
X158073991Y-125906569D01*
X158083028Y-125874201D01*
X158081557Y-125856008D01*
X158071743Y-125845846D01*
X158051249Y-125819397D01*
X158055060Y-125768109D01*
X158090336Y-125701436D01*
X158155234Y-125624274D01*
X158229597Y-125557569D01*
X158295105Y-125522779D01*
X158350753Y-125524175D01*
X158400750Y-125560667D01*
X158432793Y-125588525D01*
X158466539Y-125603000D01*
X158466969Y-125603012D01*
X158496048Y-125617266D01*
X158544782Y-125653311D01*
X158602860Y-125703542D01*
X158662026Y-125756168D01*
X158716396Y-125800851D01*
X158752168Y-125826075D01*
X158761614Y-125831831D01*
X158811116Y-125870632D01*
X158877822Y-125931073D01*
X158953529Y-126004970D01*
X159030034Y-126084139D01*
X159099134Y-126160398D01*
X159152625Y-126225563D01*
X159195226Y-126284790D01*
X159283230Y-126437715D01*
X159334613Y-126586766D01*
X159352007Y-126738716D01*
X159351848Y-126750235D01*
G37*
G36*
X150350865Y-118607493D02*
G01*
X150350575Y-118607772D01*
X150119218Y-118839672D01*
X149918072Y-119062431D01*
X149739235Y-119285314D01*
X149574809Y-119517584D01*
X149335810Y-119912498D01*
X149125769Y-120338702D01*
X148952761Y-120782549D01*
X148818227Y-121240329D01*
X148723608Y-121708334D01*
X148716231Y-121760991D01*
X148701228Y-121916328D01*
X148690792Y-122099754D01*
X148684922Y-122301308D01*
X148683613Y-122511028D01*
X148686865Y-122718952D01*
X148694675Y-122915119D01*
X148707041Y-123089566D01*
X148723959Y-123232334D01*
X148745997Y-123365861D01*
X148840296Y-123811036D01*
X148963607Y-124230409D01*
X149118076Y-124629734D01*
X149305850Y-125014771D01*
X149529076Y-125391274D01*
X149664717Y-125589420D01*
X149915204Y-125907749D01*
X150194317Y-126211588D01*
X150495976Y-126495375D01*
X150814096Y-126753549D01*
X151142597Y-126980550D01*
X151475396Y-127170817D01*
X151524876Y-127196639D01*
X151593946Y-127234893D01*
X151641405Y-127264109D01*
X151659071Y-127279448D01*
X151643168Y-127287409D01*
X151595395Y-127295771D01*
X151526875Y-127301828D01*
X151464018Y-127305868D01*
X151412620Y-127310207D01*
X151391877Y-127313422D01*
X151370428Y-127309736D01*
X151318386Y-127287664D01*
X151241768Y-127250125D01*
X151146573Y-127200062D01*
X151038804Y-127140414D01*
X150930884Y-127077673D01*
X150535074Y-126817499D01*
X150168163Y-126527191D01*
X149831283Y-126208391D01*
X149525562Y-125862742D01*
X149252132Y-125491886D01*
X149012121Y-125097466D01*
X148806659Y-124681125D01*
X148636877Y-124244505D01*
X148503904Y-123789249D01*
X148408871Y-123317000D01*
X148392322Y-123186128D01*
X148377869Y-123010483D01*
X148367746Y-122813478D01*
X148362112Y-122605672D01*
X148361121Y-122397628D01*
X148364931Y-122199905D01*
X148373696Y-122023064D01*
X148387575Y-121877667D01*
X148424586Y-121635956D01*
X148526182Y-121174284D01*
X148665855Y-120726104D01*
X148842354Y-120294300D01*
X149054427Y-119881757D01*
X149300824Y-119491362D01*
X149580295Y-119126000D01*
X149627731Y-119071142D01*
X149710392Y-118980102D01*
X149805329Y-118879404D01*
X149906707Y-118774891D01*
X150008690Y-118672404D01*
X150105443Y-118577787D01*
X150191129Y-118496879D01*
X150259914Y-118435524D01*
X150305961Y-118399563D01*
X150344324Y-118382406D01*
X150415531Y-118363191D01*
X150496461Y-118350368D01*
X150632584Y-118336585D01*
X150350865Y-118607493D01*
G37*
G36*
X149245644Y-117122193D02*
G01*
X149292450Y-117138561D01*
X149341557Y-117165220D01*
X149379157Y-117196476D01*
X149394399Y-117220050D01*
X149421745Y-117277566D01*
X149448555Y-117348000D01*
X149466262Y-117397988D01*
X149489655Y-117456719D01*
X149506283Y-117489859D01*
X149514248Y-117509778D01*
X149512185Y-117555147D01*
X149512095Y-117555432D01*
X149510043Y-117573767D01*
X149522148Y-117587020D01*
X149555413Y-117597386D01*
X149616841Y-117607060D01*
X149713437Y-117618240D01*
X149827221Y-117633723D01*
X149910970Y-117654003D01*
X149959090Y-117680025D01*
X149975019Y-117713709D01*
X149962193Y-117756970D01*
X149952118Y-117782302D01*
X149952978Y-117807866D01*
X149953747Y-117808894D01*
X149950272Y-117835537D01*
X149929319Y-117879533D01*
X149885961Y-117929535D01*
X149813660Y-117963532D01*
X149733000Y-117960281D01*
X149716862Y-117955609D01*
X149663612Y-117942732D01*
X149631984Y-117946065D01*
X149617355Y-117972110D01*
X149615101Y-118027369D01*
X149620600Y-118118343D01*
X149633139Y-118296019D01*
X149571945Y-118329162D01*
X149537053Y-118345909D01*
X149451480Y-118364652D01*
X149378090Y-118344293D01*
X149316239Y-118284297D01*
X149265279Y-118184135D01*
X149224566Y-118043273D01*
X149212780Y-117996589D01*
X149189449Y-117944506D01*
X149152319Y-117914812D01*
X149091948Y-117901442D01*
X148998894Y-117898334D01*
X148984355Y-117897957D01*
X148910517Y-117890059D01*
X148834146Y-117875142D01*
X148827850Y-117873511D01*
X148757896Y-117844662D01*
X148728665Y-117805397D01*
X148739841Y-117754354D01*
X148791105Y-117690173D01*
X148799244Y-117682155D01*
X148850624Y-117640525D01*
X148906616Y-117617425D01*
X148986058Y-117604582D01*
X149108584Y-117591417D01*
X149108991Y-117443250D01*
X149109093Y-117428139D01*
X149114049Y-117339878D01*
X149128763Y-117275968D01*
X149156532Y-117221000D01*
X149166669Y-117204853D01*
X149195528Y-117156233D01*
X149210436Y-117126859D01*
X149214945Y-117121815D01*
X149245644Y-117122193D01*
G37*
G36*
X148325173Y-116638931D02*
G01*
X148357355Y-116683972D01*
X148376328Y-116758442D01*
X148381356Y-116855898D01*
X148371702Y-116969898D01*
X148346632Y-117094000D01*
X148335642Y-117140022D01*
X148324172Y-117212598D01*
X148322531Y-117285536D01*
X148331803Y-117366661D01*
X148353077Y-117463797D01*
X148387439Y-117584770D01*
X148435975Y-117737405D01*
X148468623Y-117841127D01*
X148509809Y-117994139D01*
X148531842Y-118117559D01*
X148535130Y-118216347D01*
X148520080Y-118295468D01*
X148487099Y-118359882D01*
X148485887Y-118361580D01*
X148450341Y-118403208D01*
X148412711Y-118418954D01*
X148353361Y-118417240D01*
X148296298Y-118405093D01*
X148218177Y-118362531D01*
X148165084Y-118298638D01*
X148145500Y-118221406D01*
X148137459Y-118156620D01*
X148116397Y-118093074D01*
X148115514Y-118091320D01*
X148088454Y-118024674D01*
X148057306Y-117928801D01*
X148025280Y-117815708D01*
X147995584Y-117697400D01*
X147971429Y-117585883D01*
X147956025Y-117493165D01*
X147953336Y-117467879D01*
X147948827Y-117370384D01*
X147950257Y-117258860D01*
X147956810Y-117144570D01*
X147967673Y-117038780D01*
X147982031Y-116952753D01*
X147999069Y-116897754D01*
X148003364Y-116890153D01*
X148037850Y-116845383D01*
X148090198Y-116789793D01*
X148151169Y-116731838D01*
X148211524Y-116679972D01*
X148262026Y-116642652D01*
X148293436Y-116628334D01*
X148325173Y-116638931D01*
G37*
G36*
X150691043Y-113410307D02*
G01*
X150721602Y-113418298D01*
X150745327Y-113436360D01*
X150763069Y-113468076D01*
X150775681Y-113517030D01*
X150784014Y-113586806D01*
X150788922Y-113680988D01*
X150791255Y-113803159D01*
X150791867Y-113956904D01*
X150791609Y-114145807D01*
X150791334Y-114373450D01*
X150791173Y-114493040D01*
X150790245Y-114681295D01*
X150788573Y-114854941D01*
X150786247Y-115009358D01*
X150783359Y-115139926D01*
X150780000Y-115242023D01*
X150776260Y-115311028D01*
X150772231Y-115342322D01*
X150770545Y-115346739D01*
X150759898Y-115368796D01*
X150743067Y-115380957D01*
X150711091Y-115384432D01*
X150655008Y-115380430D01*
X150565856Y-115370158D01*
X150378584Y-115347750D01*
X150373070Y-114408270D01*
X150372328Y-114261852D01*
X150371808Y-114038099D01*
X150372308Y-113853330D01*
X150373869Y-113705419D01*
X150376532Y-113592245D01*
X150380337Y-113511682D01*
X150385325Y-113461606D01*
X150391537Y-113439895D01*
X150404978Y-113429980D01*
X150463363Y-113415730D01*
X150562484Y-113411000D01*
X150606011Y-113410200D01*
X150652796Y-113408802D01*
X150691043Y-113410307D01*
G37*
G36*
X154405139Y-125567165D02*
G01*
X154408779Y-125568213D01*
X154411912Y-125574655D01*
X154379084Y-125577707D01*
X154374071Y-125577736D01*
X154340936Y-125574898D01*
X154341639Y-125567950D01*
X154359032Y-125564066D01*
X154405139Y-125567165D01*
G37*
%TO.C,K13*%
X134660172Y-49799252D02*
X135660172Y-49799252D01*
X134660172Y-50799252D02*
X134660172Y-49799252D01*
X134660172Y-63799252D02*
X134660172Y-62799252D01*
X135660172Y-63799252D02*
X134660172Y-63799252D01*
X147660172Y-49799252D02*
X148660172Y-49799252D01*
X148660172Y-49799252D02*
X148660172Y-50799252D01*
X148660172Y-62799252D02*
X148660172Y-63799252D01*
X148660172Y-63799252D02*
X147660172Y-63799252D01*
%TO.C,SW23*%
X154533524Y-92435092D02*
X154533524Y-96380092D01*
X154533524Y-96389092D02*
X158143524Y-96389092D01*
X165433524Y-90481092D02*
X156808524Y-90481092D01*
X165433524Y-94389092D02*
X165433524Y-90481092D01*
X165433524Y-94435092D02*
X160383524Y-94481092D01*
X156808524Y-90481093D02*
G75*
G03*
X154544525Y-92365092I-190000J-2073999D01*
G01*
X160408524Y-94485093D02*
G75*
G03*
X158148525Y-96365091I-190001J-2069997D01*
G01*
%TO.C,SW6*%
X78324884Y-78205510D02*
X78324884Y-82150510D01*
X78324884Y-82159510D02*
X81934884Y-82159510D01*
X89224884Y-76251510D02*
X80599884Y-76251510D01*
X89224884Y-80159510D02*
X89224884Y-76251510D01*
X89224884Y-80205510D02*
X84174884Y-80251510D01*
X80599884Y-76251511D02*
G75*
G03*
X78335885Y-78135510I-190000J-2073999D01*
G01*
X84199884Y-80255511D02*
G75*
G03*
X81939885Y-82135509I-190001J-2069997D01*
G01*
%TO.C,D21*%
X180127001Y-86552000D02*
X180127001Y-85152000D01*
X180127001Y-85852000D02*
X179227001Y-86552000D01*
X179227001Y-86552000D02*
X179227001Y-85152000D01*
X179227001Y-85152000D02*
X180127001Y-85852000D01*
%TO.C,D15*%
X141900001Y-119953000D02*
X141900001Y-118553000D01*
X141900001Y-119253000D02*
X141000001Y-119953000D01*
X141000001Y-119953000D02*
X141000001Y-118553000D01*
X141000001Y-118553000D02*
X141900001Y-119253000D01*
%TO.C,SW32*%
X192717785Y-112533154D02*
X196134255Y-114505654D01*
X196142049Y-114510154D02*
X197947049Y-111383802D01*
X196475571Y-102116477D02*
X192163071Y-109585946D01*
X199859998Y-104070477D02*
X196475571Y-102116477D01*
X199899836Y-104093477D02*
X197414673Y-108489905D01*
X192163071Y-109585946D02*
G75*
G03*
X192662663Y-112488628I1701137J-1201545D01*
G01*
X197430637Y-108470255D02*
G75*
G03*
X197928765Y-111367470I1697670J-1199544D01*
G01*
%TO.C,SW26*%
X173645222Y-75823990D02*
X173645222Y-79768990D01*
X173645222Y-79777990D02*
X177255222Y-79777990D01*
X184545222Y-73869990D02*
X175920222Y-73869990D01*
X184545222Y-77777990D02*
X184545222Y-73869990D01*
X184545222Y-77823990D02*
X179495222Y-77869990D01*
X175920222Y-73869991D02*
G75*
G03*
X173656223Y-75753990I-190000J-2073999D01*
G01*
X179520222Y-77873991D02*
G75*
G03*
X177260223Y-79753989I-190001J-2069997D01*
G01*
%TO.C,SW12*%
X97377044Y-113928310D02*
X97377044Y-117873310D01*
X97377044Y-117882310D02*
X100987044Y-117882310D01*
X108277044Y-111974310D02*
X99652044Y-111974310D01*
X108277044Y-115882310D02*
X108277044Y-111974310D01*
X108277044Y-115928310D02*
X103227044Y-115974310D01*
X99652044Y-111974311D02*
G75*
G03*
X97388045Y-113858310I-190000J-2073999D01*
G01*
X103252044Y-115978311D02*
G75*
G03*
X100992045Y-117858309I-190001J-2069997D01*
G01*
%TO.C,SW31*%
X192637844Y-80527492D02*
X192637844Y-84472492D01*
X192637844Y-84481492D02*
X196247844Y-84481492D01*
X203537844Y-78573492D02*
X194912844Y-78573492D01*
X203537844Y-82481492D02*
X203537844Y-78573492D01*
X203537844Y-82527492D02*
X198487844Y-82573492D01*
X194912844Y-78573493D02*
G75*
G03*
X192648845Y-80457492I-190000J-2073999D01*
G01*
X198512844Y-82577493D02*
G75*
G03*
X196252845Y-84457491I-190001J-2069997D01*
G01*
%TO.C,SW15*%
X116369666Y-92435092D02*
X116369666Y-96380092D01*
X116369666Y-96389092D02*
X119979666Y-96389092D01*
X127269666Y-90481092D02*
X118644666Y-90481092D01*
X127269666Y-94389092D02*
X127269666Y-90481092D01*
X127269666Y-94435092D02*
X122219666Y-94481092D01*
X118644666Y-90481093D02*
G75*
G03*
X116380667Y-92365092I-190000J-2073999D01*
G01*
X122244666Y-94485093D02*
G75*
G03*
X119984667Y-96365091I-190001J-2069997D01*
G01*
%TO.C,D27*%
X199685001Y-72455000D02*
X199685001Y-71055000D01*
X199685001Y-71755000D02*
X198785001Y-72455000D01*
X198785001Y-72455000D02*
X198785001Y-71055000D01*
X198785001Y-71055000D02*
X199685001Y-71755000D01*
%TO.C,D2*%
X84955000Y-88711000D02*
X84955000Y-87311000D01*
X84955000Y-88011000D02*
X84055000Y-88711000D01*
X84055000Y-88711000D02*
X84055000Y-87311000D01*
X84055000Y-87311000D02*
X84955000Y-88011000D01*
%TO.C,SW20*%
X135481364Y-109165270D02*
X135481364Y-113110270D01*
X135481364Y-113119270D02*
X139091364Y-113119270D01*
X146381364Y-107211270D02*
X137756364Y-107211270D01*
X146381364Y-111119270D02*
X146381364Y-107211270D01*
X146381364Y-111165270D02*
X141331364Y-111211270D01*
X137756364Y-107211271D02*
G75*
G03*
X135492365Y-109095270I-190000J-2073999D01*
G01*
X141356364Y-111215271D02*
G75*
G03*
X139096365Y-113095269I-190001J-2069997D01*
G01*
%TO.C,D9*%
X122928000Y-103062000D02*
X122928000Y-101662000D01*
X122928000Y-102362000D02*
X122028000Y-103062000D01*
X122028000Y-103062000D02*
X122028000Y-101662000D01*
X122028000Y-101662000D02*
X122928000Y-102362000D01*
%TO.C,SW27*%
X173585684Y-94816612D02*
X173585684Y-98761612D01*
X173585684Y-98770612D02*
X177195684Y-98770612D01*
X184485684Y-92862612D02*
X175860684Y-92862612D01*
X184485684Y-96770612D02*
X184485684Y-92862612D01*
X184485684Y-96816612D02*
X179435684Y-96862612D01*
X175860684Y-92862613D02*
G75*
G03*
X173596685Y-94746612I-190000J-2073999D01*
G01*
X179460684Y-96866613D02*
G75*
G03*
X177200685Y-98746611I-190001J-2069997D01*
G01*
D12*
%TO.C,D24*%
X121222800Y-47919200D02*
X120714800Y-47919200D01*
X120714800Y-47919200D02*
X120714800Y-48446800D01*
D11*
%TO.C,D14*%
X142359000Y-100522000D02*
X142359000Y-99122000D01*
X142359000Y-99822000D02*
X141459000Y-100522000D01*
X141459000Y-100522000D02*
X141459000Y-99122000D01*
X141459000Y-99122000D02*
X142359000Y-99822000D01*
%TO.C,D25*%
X200160000Y-95566000D02*
X200160000Y-96966000D01*
X200160000Y-96266000D02*
X201060000Y-95566000D01*
X201060000Y-95566000D02*
X201060000Y-96966000D01*
X201060000Y-96966000D02*
X200160000Y-96266000D01*
%TO.C,D7*%
X104082999Y-124398000D02*
X104082999Y-122998000D01*
X104082999Y-123698000D02*
X103182999Y-124398000D01*
X103182999Y-124398000D02*
X103182999Y-122998000D01*
X103182999Y-122998000D02*
X104082999Y-123698000D01*
%TO.C,SW9*%
X97436582Y-56771830D02*
X97436582Y-60716830D01*
X97436582Y-60725830D02*
X101046582Y-60725830D01*
X108336582Y-54817830D02*
X99711582Y-54817830D01*
X108336582Y-58725830D02*
X108336582Y-54817830D01*
X108336582Y-58771830D02*
X103286582Y-58817830D01*
X99711582Y-54817831D02*
G75*
G03*
X97447583Y-56701830I-190000J-2073999D01*
G01*
X103311582Y-58821831D02*
G75*
G03*
X101051583Y-60701829I-190001J-2069997D01*
G01*
%TO.C,SW7*%
X78324884Y-97257670D02*
X78324884Y-101202670D01*
X78324884Y-101211670D02*
X81934884Y-101211670D01*
X89224884Y-95303670D02*
X80599884Y-95303670D01*
X89224884Y-99211670D02*
X89224884Y-95303670D01*
X89224884Y-99257670D02*
X84174884Y-99303670D01*
X80599884Y-95303671D02*
G75*
G03*
X78335885Y-97187670I-190000J-2073999D01*
G01*
X84199884Y-99307671D02*
G75*
G03*
X81939885Y-101187669I-190001J-2069997D01*
G01*
%TO.C,SW25*%
X173585684Y-56712292D02*
X173585684Y-60657292D01*
X173585684Y-60666292D02*
X177195684Y-60666292D01*
X184485684Y-54758292D02*
X175860684Y-54758292D01*
X184485684Y-58666292D02*
X184485684Y-54758292D01*
X184485684Y-58712292D02*
X179435684Y-58758292D01*
X175860684Y-54758293D02*
G75*
G03*
X173596685Y-56642292I-190000J-2073999D01*
G01*
X179460684Y-58762293D02*
G75*
G03*
X177200685Y-60642291I-190001J-2069997D01*
G01*
%TO.C,SW11*%
X97436582Y-94816612D02*
X97436582Y-98761612D01*
X97436582Y-98770612D02*
X101046582Y-98770612D01*
X108336582Y-92862612D02*
X99711582Y-92862612D01*
X108336582Y-96770612D02*
X108336582Y-92862612D01*
X108336582Y-96816612D02*
X103286582Y-96862612D01*
X99711582Y-92862613D02*
G75*
G03*
X97447583Y-94746612I-190000J-2073999D01*
G01*
X103311582Y-96866613D02*
G75*
G03*
X101051583Y-98746611I-190001J-2069997D01*
G01*
%TO.C,D19*%
X161155000Y-65216000D02*
X161155000Y-63816000D01*
X161155000Y-64516000D02*
X160255000Y-65216000D01*
X160255000Y-65216000D02*
X160255000Y-63816000D01*
X160255000Y-63816000D02*
X161155000Y-64516000D01*
%TO.C,D18*%
X161585001Y-83631000D02*
X161585001Y-82231000D01*
X161585001Y-82931000D02*
X160685001Y-83631000D01*
X160685001Y-83631000D02*
X160685001Y-82231000D01*
X160685001Y-82231000D02*
X161585001Y-82931000D01*
%TO.C,SW14*%
X116429204Y-73442470D02*
X116429204Y-77387470D01*
X116429204Y-77396470D02*
X120039204Y-77396470D01*
X127329204Y-71488470D02*
X118704204Y-71488470D01*
X127329204Y-75396470D02*
X127329204Y-71488470D01*
X127329204Y-75442470D02*
X122279204Y-75488470D01*
X118704204Y-71488471D02*
G75*
G03*
X116440205Y-73372470I-190000J-2073999D01*
G01*
X122304204Y-75492471D02*
G75*
G03*
X120044205Y-77372469I-190001J-2069997D01*
G01*
%TO.C,SW21*%
X154533524Y-54330772D02*
X154533524Y-58275772D01*
X154533524Y-58284772D02*
X158143524Y-58284772D01*
X165433524Y-52376772D02*
X156808524Y-52376772D01*
X165433524Y-56284772D02*
X165433524Y-52376772D01*
X165433524Y-56330772D02*
X160383524Y-56376772D01*
X156808524Y-52376773D02*
G75*
G03*
X154544525Y-54260772I-190000J-2073999D01*
G01*
X160408524Y-56380773D02*
G75*
G03*
X158148525Y-58260771I-190001J-2069997D01*
G01*
%TO.C,D23*%
X176417421Y-125008472D02*
X175427472Y-125998421D01*
X175922447Y-125503447D02*
X177053817Y-125644868D01*
X177053817Y-125644868D02*
X176063868Y-126634817D01*
X176063868Y-126634817D02*
X175922447Y-125503447D01*
%TO.C,SW24*%
X162077108Y-112585511D02*
X161392066Y-116470577D01*
X161390503Y-116479440D02*
X164945659Y-117106310D01*
X173150821Y-112553961D02*
X164656855Y-111056246D01*
X172472204Y-116402590D02*
X173150821Y-112553961D01*
X172464217Y-116447891D02*
X167482950Y-115616269D01*
X164656855Y-111056247D02*
G75*
G03*
X162100098Y-112518484I-547260J-2009497D01*
G01*
X167506875Y-115624550D02*
G75*
G03*
X164954752Y-117083542I-546566J-2005556D01*
G01*
%TO.C,D22*%
X180205000Y-105094000D02*
X180205000Y-103694000D01*
X180205000Y-104394000D02*
X179305000Y-105094000D01*
X179305000Y-105094000D02*
X179305000Y-103694000D01*
X179305000Y-103694000D02*
X180205000Y-104394000D01*
%TO.C,D3*%
X104082999Y-87187000D02*
X104082999Y-85787000D01*
X104082999Y-86487000D02*
X103182999Y-87187000D01*
X103182999Y-87187000D02*
X103182999Y-85787000D01*
X103182999Y-85787000D02*
X104082999Y-86487000D01*
%TO.C,D8*%
X123259999Y-122493000D02*
X123259999Y-121093000D01*
X123259999Y-121793000D02*
X122359999Y-122493000D01*
X122359999Y-122493000D02*
X122359999Y-121093000D01*
X122359999Y-121093000D02*
X123259999Y-121793000D01*
%TO.C,SW19*%
X135540902Y-90113110D02*
X135540902Y-94058110D01*
X135540902Y-94067110D02*
X139150902Y-94067110D01*
X146440902Y-88159110D02*
X137815902Y-88159110D01*
X146440902Y-92067110D02*
X146440902Y-88159110D01*
X146440902Y-92113110D02*
X141390902Y-92159110D01*
X137815902Y-88159111D02*
G75*
G03*
X135551903Y-90043110I-190000J-2073999D01*
G01*
X141415902Y-92163111D02*
G75*
G03*
X139155903Y-94043109I-190001J-2069997D01*
G01*
%TO.C,D29*%
X84778999Y-70677000D02*
X84778999Y-69277000D01*
X84778999Y-69977000D02*
X83878999Y-70677000D01*
X83878999Y-70677000D02*
X83878999Y-69277000D01*
X83878999Y-69277000D02*
X84778999Y-69977000D01*
%TO.C,D17*%
X161359999Y-102554000D02*
X161359999Y-101154000D01*
X161359999Y-101854000D02*
X160459999Y-102554000D01*
X160459999Y-102554000D02*
X160459999Y-101154000D01*
X160459999Y-101154000D02*
X161359999Y-101854000D01*
%TO.C,SW28*%
X183152301Y-129078315D02*
X186568771Y-131050815D01*
X186576565Y-131055315D02*
X188381565Y-127928963D01*
X186910087Y-118661638D02*
X182597587Y-126131107D01*
X190294514Y-120615638D02*
X186910087Y-118661638D01*
X190334352Y-120638638D02*
X187849189Y-125035066D01*
X182597587Y-126131107D02*
G75*
G03*
X183097179Y-129033789I1701137J-1201545D01*
G01*
X187865153Y-125015416D02*
G75*
G03*
X188363281Y-127912631I1697670J-1199544D01*
G01*
%TO.C,D10*%
X123005999Y-83885000D02*
X123005999Y-82485000D01*
X123005999Y-83185000D02*
X122105999Y-83885000D01*
X122105999Y-83885000D02*
X122105999Y-82485000D01*
X122105999Y-82485000D02*
X123005999Y-83185000D01*
%TO.C,D26*%
X200320001Y-91759000D02*
X200320001Y-90359000D01*
X200320001Y-91059000D02*
X199420001Y-91759000D01*
X199420001Y-91759000D02*
X199420001Y-90359000D01*
X199420001Y-90359000D02*
X200320001Y-91059000D01*
%TO.C,D12*%
X141183000Y-61149000D02*
X141183000Y-62549000D01*
X141183000Y-61849000D02*
X142083000Y-61149000D01*
X142083000Y-61149000D02*
X142083000Y-62549000D01*
X142083000Y-62549000D02*
X141183000Y-61849000D01*
%TO.C,D13*%
X142154001Y-81599000D02*
X142154001Y-80199000D01*
X142154001Y-80899000D02*
X141254001Y-81599000D01*
X141254001Y-81599000D02*
X141254001Y-80199000D01*
X141254001Y-80199000D02*
X142154001Y-80899000D01*
%TO.C,D4*%
X85082000Y-108015000D02*
X85082000Y-106615000D01*
X85082000Y-107315000D02*
X84182000Y-108015000D01*
X84182000Y-108015000D02*
X84182000Y-106615000D01*
X84182000Y-106615000D02*
X85082000Y-107315000D01*
%TO.C,SW8*%
X78324884Y-116250292D02*
X78324884Y-120195292D01*
X78324884Y-120204292D02*
X81934884Y-120204292D01*
X89224884Y-114296292D02*
X80599884Y-114296292D01*
X89224884Y-118204292D02*
X89224884Y-114296292D01*
X89224884Y-118250292D02*
X84174884Y-118296292D01*
X80599884Y-114296293D02*
G75*
G03*
X78335885Y-116180292I-190000J-2073999D01*
G01*
X84199884Y-118300293D02*
G75*
G03*
X81939885Y-120180291I-190001J-2069997D01*
G01*
%TO.C,SW13*%
X116429204Y-54271234D02*
X116429204Y-58216234D01*
X116429204Y-58225234D02*
X120039204Y-58225234D01*
X127329204Y-52317234D02*
X118704204Y-52317234D01*
X127329204Y-56225234D02*
X127329204Y-52317234D01*
X127329204Y-56271234D02*
X122279204Y-56317234D01*
X118704204Y-52317235D02*
G75*
G03*
X116440205Y-54201234I-190000J-2073999D01*
G01*
X122304204Y-56321235D02*
G75*
G03*
X120044205Y-58201233I-190001J-2069997D01*
G01*
%TO.C,SW30*%
X192677978Y-61442754D02*
X192677978Y-65387754D01*
X192677978Y-65396754D02*
X196287978Y-65396754D01*
X203577978Y-59488754D02*
X194952978Y-59488754D01*
X203577978Y-63396754D02*
X203577978Y-59488754D01*
X203577978Y-63442754D02*
X198527978Y-63488754D01*
X194952978Y-59488755D02*
G75*
G03*
X192688979Y-61372754I-190000J-2073999D01*
G01*
X198552978Y-63492755D02*
G75*
G03*
X196292979Y-65372753I-190001J-2069997D01*
G01*
%TO.C,SW5*%
X78344288Y-59093812D02*
X78344288Y-63038812D01*
X78344288Y-63047812D02*
X81954288Y-63047812D01*
X89244288Y-57139812D02*
X80619288Y-57139812D01*
X89244288Y-61047812D02*
X89244288Y-57139812D01*
X89244288Y-61093812D02*
X84194288Y-61139812D01*
X80619288Y-57139813D02*
G75*
G03*
X78355289Y-59023812I-190000J-2073999D01*
G01*
X84219288Y-61143813D02*
G75*
G03*
X81959289Y-63023811I-190001J-2069997D01*
G01*
%TO.C,SW16*%
X116469472Y-111546790D02*
X116469472Y-115491790D01*
X116469472Y-115500790D02*
X120079472Y-115500790D01*
X127369472Y-109592790D02*
X118744472Y-109592790D01*
X127369472Y-113500790D02*
X127369472Y-109592790D01*
X127369472Y-113546790D02*
X122319472Y-113592790D01*
X118744472Y-109592791D02*
G75*
G03*
X116480473Y-111476790I-190000J-2073999D01*
G01*
X122344472Y-113596791D02*
G75*
G03*
X120084473Y-115476789I-190001J-2069997D01*
G01*
%TO.C,SW10*%
X97436582Y-75883528D02*
X97436582Y-79828528D01*
X97436582Y-79837528D02*
X101046582Y-79837528D01*
X108336582Y-73929528D02*
X99711582Y-73929528D01*
X108336582Y-77837528D02*
X108336582Y-73929528D01*
X108336582Y-77883528D02*
X103286582Y-77929528D01*
X99711582Y-73929529D02*
G75*
G03*
X97447583Y-75813528I-190000J-2073999D01*
G01*
X103311582Y-77933529D02*
G75*
G03*
X101051583Y-79813527I-190001J-2069997D01*
G01*
%TO.C,SW1*%
X135521632Y-71001412D02*
X135521632Y-74946412D01*
X135521632Y-74955412D02*
X139131632Y-74955412D01*
X146421632Y-69047412D02*
X137796632Y-69047412D01*
X146421632Y-72955412D02*
X146421632Y-69047412D01*
X146421632Y-73001412D02*
X141371632Y-73047412D01*
X137796632Y-69047413D02*
G75*
G03*
X135532633Y-70931412I-190000J-2073999D01*
G01*
X141396632Y-73051413D02*
G75*
G03*
X139136633Y-74931411I-190001J-2069997D01*
G01*
%TO.C,SW29*%
X202435921Y-115021082D02*
X199019451Y-113048582D01*
X199011657Y-113044082D02*
X197206657Y-116170434D01*
X198678135Y-125437759D02*
X202990635Y-117968290D01*
X195293708Y-123483759D02*
X198678135Y-125437759D01*
X195253870Y-123460759D02*
X197739033Y-119064331D01*
X202990635Y-117968290D02*
G75*
G03*
X202491043Y-115065608I-1701137J1201545D01*
G01*
X197723069Y-119083981D02*
G75*
G03*
X197224941Y-116186766I-1697670J1199544D01*
G01*
%TO.C,SW22*%
X154533524Y-73442470D02*
X154533524Y-77387470D01*
X154533524Y-77396470D02*
X158143524Y-77396470D01*
X165433524Y-71488470D02*
X156808524Y-71488470D01*
X165433524Y-75396470D02*
X165433524Y-71488470D01*
X165433524Y-75442470D02*
X160383524Y-75488470D01*
X156808524Y-71488471D02*
G75*
G03*
X154544525Y-73372470I-190000J-2073999D01*
G01*
X160408524Y-75492471D02*
G75*
G03*
X158148525Y-77372469I-190001J-2069997D01*
G01*
%TO.C,D6*%
X85004001Y-127065000D02*
X85004001Y-125665000D01*
X85004001Y-126365000D02*
X84104001Y-127065000D01*
X84104001Y-127065000D02*
X84104001Y-125665000D01*
X84104001Y-125665000D02*
X85004001Y-126365000D01*
%TO.C,D20*%
X180586000Y-67629000D02*
X180586000Y-66229000D01*
X180586000Y-66929000D02*
X179686000Y-67629000D01*
X179686000Y-67629000D02*
X179686000Y-66229000D01*
X179686000Y-66229000D02*
X180586000Y-66929000D01*
%TO.C,D11*%
X122928000Y-65216000D02*
X122928000Y-63816000D01*
X122928000Y-64516000D02*
X122028000Y-65216000D01*
X122028000Y-65216000D02*
X122028000Y-63816000D01*
X122028000Y-63816000D02*
X122928000Y-64516000D01*
%TO.C,D16*%
X167173001Y-124271000D02*
X167173001Y-122871000D01*
X167173001Y-123571000D02*
X166273001Y-124271000D01*
X166273001Y-124271000D02*
X166273001Y-122871000D01*
X166273001Y-122871000D02*
X167173001Y-123571000D01*
%TO.C,D5*%
X104132000Y-105221000D02*
X104132000Y-103821000D01*
X104132000Y-104521000D02*
X103232000Y-105221000D01*
X103232000Y-105221000D02*
X103232000Y-103821000D01*
X103232000Y-103821000D02*
X104132000Y-104521000D01*
%TO.C,D1*%
X103955999Y-68137000D02*
X103955999Y-66737000D01*
X103955999Y-67437000D02*
X103055999Y-68137000D01*
X103055999Y-68137000D02*
X103055999Y-66737000D01*
X103055999Y-66737000D02*
X103955999Y-67437000D01*
%TD*%
M02*
