M48
; DRILL file {KiCad 7.0.1} date Sat Apr 29 17:31:51 2023
; FORMAT={-:-/ absolute / inch / decimal}
; #@! TF.CreationDate,2023-04-29T17:31:51+07:00
; #@! TF.GenerationSoftware,Kicad,Pcbnew,7.0.1
; #@! TF.FileFunction,Plated,1,2,PTH
FMAT,2
INCH
; #@! TA.AperFunction,Plated,PTH,ComponentDrill
T1C0.0120
; #@! TA.AperFunction,Plated,PTH,ViaDrill
T2C0.0157
; #@! TA.AperFunction,Plated,PTH,ComponentDrill
T3C0.0157
; #@! TA.AperFunction,Plated,PTH,ComponentDrill
T4C0.0295
; #@! TA.AperFunction,Plated,PTH,ComponentDrill
T5C0.0394
; #@! TA.AperFunction,Plated,PTH,ComponentDrill
T6C0.0400
; #@! TA.AperFunction,Plated,PTH,ComponentDrill
T7C0.0590
%
G90
G05
T1
X4.7758Y-1.9461
X4.8054Y-1.9461
X4.9746Y-1.9461
X5.0061Y-1.9461
T2
X2.99Y-3.835
X2.995Y-4.565
X3.0Y-3.07
X3.005Y-2.32
X3.62Y-2.775
X3.65Y-3.075
X3.65Y-3.83
X3.655Y-4.575
X3.665Y-2.32
X3.74Y-2.23
X3.74Y-4.48
X3.745Y-3.735
X3.755Y-2.99
X4.3597Y-2.2253
X4.405Y-2.985
X4.41Y-3.73
X4.41Y-4.475
X4.45Y-3.425
X4.495Y-2.89
X4.495Y-4.385
X4.51Y-3.63
X4.53Y-2.125
X5.1074Y-2.1268
X5.1074Y-2.8816
X5.15Y-3.625
X5.16Y-4.38
X5.1832Y-2.4981
X5.185Y-2.635
X5.195Y-3.995
X5.205Y-4.765
X5.225Y-2.635
X5.2273Y-2.6946
X5.23Y-2.795
X5.245Y-4.295
X5.265Y-2.61
X5.2922Y-2.7855
X5.2929Y-3.5379
X5.355Y-2.445
X5.5341Y-2.1266
X5.54Y-1.89
X5.575Y-2.0804
X5.8575Y-4.288
X5.8591Y-2.7855
X5.8599Y-3.5379
X5.99Y-2.475
X5.99Y-3.635
X6.0407Y-2.1292
X6.0407Y-2.8816
X6.095Y-2.475
X6.34Y-4.4153
X6.6076Y-2.1292
X6.6076Y-2.8816
X6.6076Y-3.6293
X6.62Y-2.44
X6.62Y-2.475
X6.625Y-2.525
X6.6834Y-2.44
X6.71Y-2.525
X6.7908Y-2.2229
X6.7908Y-3.7231
X6.7931Y-2.9754
X6.8984Y-4.5137
X7.3577Y-2.2229
X7.3577Y-3.7231
X7.365Y-2.555
X7.38Y-2.975
X7.4335Y-2.5555
X7.464Y-4.6234
X7.525Y-2.41
X7.5409Y-3.1605
X7.6202Y-4.5585
X7.685Y-5.035
X7.75Y-2.09
X7.81Y-2.05
X7.8406Y-3.972
X7.937Y-4.4003
X8.095Y-2.295
X8.1094Y-2.4092
X8.12Y-3.155
T3
X3.2511Y-2.755
X3.2581Y-3.465
X3.26Y-4.975
X3.2631Y-4.225
X3.385Y-2.755
X3.3919Y-3.465
X3.3939Y-4.975
X3.3969Y-4.225
X4.0061Y-2.655
X4.0111Y-3.405
X4.0111Y-4.87
X4.0131Y-4.115
X4.14Y-2.655
X4.145Y-3.405
X4.145Y-4.87
X4.1469Y-4.115
X4.7531Y-2.54
X4.7531Y-4.03
X4.7561Y-3.275
X4.7661Y-4.795
X4.8869Y-2.54
X4.8869Y-4.03
X4.89Y-3.275
X4.9Y-4.795
X5.5Y-4.695
X5.51Y-3.185
X5.5111Y-2.435
X5.5181Y-3.93
X5.6339Y-4.695
X5.6439Y-3.185
X5.645Y-2.435
X5.6519Y-3.93
X6.2581Y-2.54
X6.2661Y-4.01
X6.275Y-3.265
X6.3919Y-2.54
X6.4Y-4.01
X6.4089Y-3.265
X6.495Y-4.865
X6.6289Y-4.865
X6.8927Y-4.9077
X6.9873Y-5.0023
X7.005Y-3.38
X7.0081Y-4.11
X7.0231Y-2.635
X7.1389Y-3.38
X7.1419Y-4.11
X7.1569Y-2.635
X7.775Y-2.825
X7.8Y-3.585
X7.8331Y-3.79
X7.9089Y-2.825
X7.9339Y-3.585
X7.9669Y-3.79
T4
X6.09Y-1.9
X6.09Y-1.9787
X7.4465Y-1.9056
X7.4465Y-1.9844
T5
X5.2772Y-1.94
X5.2772Y-2.04
X5.2772Y-2.14
X5.2772Y-2.24
X5.2772Y-2.34
X5.2772Y-2.44
X5.2772Y-2.54
X5.8772Y-1.94
X5.8772Y-2.04
X5.8772Y-2.14
X5.8772Y-2.24
X5.8772Y-2.34
X5.8772Y-2.44
X5.8772Y-2.54
T6
X5.7272Y-2.6025
X5.8022Y-2.6025
T7
X5.4272Y-2.1362
X5.4772Y-2.0362
X5.6772Y-2.0362
X5.7272Y-2.1362
T0
M30
