M48
; DRILL file {KiCad 7.0.1} date Sat Apr 29 17:31:51 2023
; FORMAT={-:-/ absolute / inch / decimal}
; #@! TF.CreationDate,2023-04-29T17:31:51+07:00
; #@! TF.GenerationSoftware,Kicad,Pcbnew,7.0.1
; #@! TF.FileFunction,NonPlated,1,2,NPTH
FMAT,2
INCH
; #@! TA.AperFunction,NonPlated,NPTH,ComponentDrill
T1C0.0354
; #@! TA.AperFunction,NonPlated,NPTH,ComponentDrill
T2C0.0669
; #@! TA.AperFunction,NonPlated,NPTH,ComponentDrill
T3C0.0670
; #@! TA.AperFunction,NonPlated,NPTH,ComponentDrill
T4C0.0866
; #@! TA.AperFunction,NonPlated,NPTH,ComponentDrill
T5C0.1181
; #@! TA.AperFunction,NonPlated,NPTH,ComponentDrill
T6C0.1200
; #@! TA.AperFunction,NonPlated,NPTH,ComponentDrill
T7C0.1570
; #@! TA.AperFunction,NonPlated,NPTH,ComponentDrill
T8C0.1575
%
G90
G05
T1
X7.7822Y-1.8983
X7.7824Y-1.8957
X7.9004Y-1.8983
X7.9005Y-1.8957
T2
X3.1238Y-3.2699
X3.1238Y-4.02
X3.1238Y-4.7677
X3.1246Y-2.5175
X3.5238Y-3.2699
X3.5238Y-4.02
X3.5238Y-4.7677
X3.5246Y-2.5175
X3.8739Y-4.6763
X3.8762Y-2.4261
X3.8762Y-3.1785
X3.8762Y-3.9239
X4.2739Y-4.6763
X4.2762Y-2.4261
X4.2762Y-3.1785
X4.2762Y-3.9239
X4.6216Y-3.8301
X4.624Y-2.3276
X4.624Y-3.0824
X4.6256Y-4.5826
X5.0216Y-3.8301
X5.024Y-2.3276
X5.024Y-3.0824
X5.0256Y-4.5826
X5.3741Y-4.4888
X5.3757Y-2.9863
X5.3764Y-3.7387
X5.7741Y-4.4888
X5.7757Y-2.9863
X5.7764Y-3.7387
X6.1242Y-2.33
X6.1242Y-3.0824
X6.1242Y-3.8301
X6.3874Y-4.6275
X6.5242Y-2.33
X6.5242Y-3.0824
X6.5242Y-3.8301
X6.7813Y-4.697
X6.8742Y-2.4237
X6.8742Y-3.9239
X6.8766Y-3.1761
X7.2742Y-2.4237
X7.2742Y-3.9239
X7.2766Y-3.1761
X7.3962Y-5.1425
X7.5845Y-4.8141
X7.5962Y-4.7961
X7.6243Y-3.3613
X7.6259Y-2.61
X7.7728Y-4.4911
X7.7845Y-4.4677
X7.9728Y-4.1447
X8.0243Y-3.3613
X8.0259Y-2.61
T3
X5.3772Y-2.2362
X5.7772Y-2.2362
T4
X3.6992Y-2.8406
X3.6992Y-4.3445
X5.0591Y-2.7067
X5.0591Y-4.2067
X6.0988Y-2.7067
X6.0988Y-4.2067
X7.275Y-4.3
X7.4508Y-2.8406
T5
X3.1738Y-3.1699
X3.1738Y-3.92
X3.1738Y-4.6677
X3.1746Y-2.4175
X3.2238Y-3.0699
X3.2238Y-3.82
X3.2238Y-4.5677
X3.2246Y-2.3175
X3.4238Y-3.0699
X3.4238Y-3.82
X3.4238Y-4.5677
X3.4246Y-2.3175
X3.4738Y-3.1699
X3.4738Y-3.92
X3.4738Y-4.6677
X3.4746Y-2.4175
X3.9239Y-4.5763
X3.9262Y-2.3261
X3.9262Y-3.0785
X3.9262Y-3.8239
X3.9739Y-4.4763
X3.9762Y-2.2261
X3.9762Y-2.9785
X3.9762Y-3.7239
X4.1739Y-4.4763
X4.1762Y-2.2261
X4.1762Y-2.9785
X4.1762Y-3.7239
X4.2239Y-4.5763
X4.2262Y-2.3261
X4.2262Y-3.0785
X4.2262Y-3.8239
X4.6716Y-3.7301
X4.674Y-2.2276
X4.674Y-2.9824
X4.6756Y-4.4826
X4.7216Y-3.6301
X4.724Y-2.1276
X4.724Y-2.8824
X4.7256Y-4.3826
X4.9216Y-3.6301
X4.924Y-2.1276
X4.924Y-2.8824
X4.9256Y-4.3826
X4.9716Y-3.7301
X4.974Y-2.2276
X4.974Y-2.9824
X4.9756Y-4.4826
X5.4241Y-4.3888
X5.4257Y-2.8863
X5.4264Y-3.6387
X5.4741Y-4.2888
X5.4757Y-2.7863
X5.4764Y-3.5387
X5.6741Y-4.2888
X5.6757Y-2.7863
X5.6764Y-3.5387
X5.7241Y-4.3888
X5.7257Y-2.8863
X5.7264Y-3.6387
X6.1742Y-2.23
X6.1742Y-2.9824
X6.1742Y-3.7301
X6.2242Y-2.13
X6.2242Y-2.8824
X6.2242Y-3.6301
X6.4242Y-2.13
X6.4242Y-2.8824
X6.4242Y-3.6301
X6.454Y-4.5377
X6.4742Y-2.23
X6.4742Y-2.9824
X6.4742Y-3.7301
X6.5206Y-4.4479
X6.7176Y-4.4827
X6.7494Y-4.5898
X6.9242Y-2.3237
X6.9242Y-3.8239
X6.9266Y-3.0761
X6.9742Y-2.2237
X6.9742Y-3.7239
X6.9766Y-2.9761
X7.1742Y-2.2237
X7.1742Y-3.7239
X7.1766Y-2.9761
X7.2242Y-2.3237
X7.2242Y-3.8239
X7.2266Y-3.0761
X7.273Y-4.9559
X7.3346Y-5.0492
X7.373Y-4.7827
X7.4846Y-4.7894
X7.6496Y-4.3045
X7.6743Y-3.2613
X7.6759Y-2.51
X7.6961Y-4.8208
X7.7112Y-4.3978
X7.7243Y-3.1613
X7.7259Y-2.41
X7.7496Y-4.1313
X7.8077Y-4.8275
X7.8461Y-4.561
X7.8612Y-4.138
X7.9077Y-4.6543
X7.9243Y-3.1613
X7.9259Y-2.41
X7.9743Y-3.2613
X7.9759Y-2.51
T6
X7.6884Y-5.1841
X8.1569Y-4.3727
T7
X5.5772Y-2.2362
X7.1688Y-4.8841
X7.6373Y-4.0727
T8
X3.3238Y-3.2699
X3.3238Y-4.02
X3.3238Y-4.7677
X3.3246Y-2.5175
X4.0739Y-4.6763
X4.0762Y-2.4261
X4.0762Y-3.1785
X4.0762Y-3.9239
X4.8216Y-3.8301
X4.824Y-2.3276
X4.824Y-3.0824
X4.8256Y-4.5826
X5.5741Y-4.4888
X5.5757Y-2.9863
X5.5764Y-3.7387
X6.3242Y-2.33
X6.3242Y-3.0824
X6.3242Y-3.8301
X6.5843Y-4.6622
X7.0742Y-2.4237
X7.0742Y-3.9239
X7.0766Y-3.1761
X7.4962Y-4.9693
X7.6845Y-4.6409
X7.8243Y-3.3613
X7.8259Y-2.61
X7.8728Y-4.3179
T0
M30
